<svg width="300" height="219" viewBox="0 0 300 219" fill="none" xmlns="http://www.w3.org/2000/svg">
<g clip-path="url(#clip0_205_1190)">
<path d="M120.049 21.1242C116.394 27.1819 123.276 37.3887 116.34 39.5082L116.911 38.9585C121.098 34.0037 112.347 23.5168 116.534 18.5621C117.185 17.8353 117.743 17.0367 118.198 16.1831" fill="#2F2E41"/>
<path d="M154.28 109.995C154.4 109.389 154.38 108.765 154.222 108.167C154.064 107.569 153.772 107.011 153.366 106.534C152.959 106.056 152.449 105.67 151.871 105.403C151.293 105.135 150.661 104.993 150.02 104.986L140.985 79.7332L135.984 85.8656L145.537 109.461C145.596 110.499 146.048 111.479 146.809 112.217C147.569 112.955 148.584 113.399 149.662 113.464C150.74 113.53 151.805 113.213 152.656 112.574C153.507 111.935 154.085 111.017 154.28 109.995L154.28 109.995Z" fill="#FFB8B8"/>
<path d="M114.566 49.0251C114.566 49.0251 114.284 39.8839 122.781 45.1205C131.278 50.3571 149.778 99.4114 149.778 99.4114L140.572 104.203L119.672 59.313L114.566 49.0251Z" fill="#E36D64" fill-opacity="0.59"/>
<path d="M139.632 205.699L135.389 207.443L126.377 192.529L132.639 189.954L139.632 205.699Z" fill="#FFB6B6"/>
<path d="M145.013 211.85L141.971 213.101L140.2 210.561L140.037 213.896L131.967 217.214C131.58 217.373 131.15 217.409 130.741 217.316C130.331 217.224 129.963 217.008 129.69 216.7C129.417 216.392 129.254 216.008 129.224 215.604C129.194 215.201 129.298 214.798 129.523 214.456L134.065 207.525L132.824 204.731L139.776 202.334L145.013 211.85Z" fill="#2F2E41"/>
<path d="M73.1224 210.757L68.5142 210.541L67.1895 193.337L73.9915 193.657L73.1224 210.757Z" fill="#FFB6B6"/>
<path d="M75.1648 218.554L71.8599 218.398L71.4225 215.369L69.7591 218.299L60.9937 217.887C60.5736 217.867 60.171 217.719 59.8447 217.464C59.5184 217.208 59.2856 216.859 59.1802 216.467C59.0747 216.076 59.1022 215.662 59.2586 215.286C59.4151 214.91 59.6922 214.592 60.0496 214.379L67.2857 210.057L67.4399 207.023L74.7809 207.792L75.1648 218.554Z" fill="#2F2E41"/>
<path d="M208.905 208.016C209.21 208.027 209.512 207.947 209.768 207.788C210.025 207.628 210.224 207.396 210.339 207.124C210.454 206.852 210.48 206.552 210.412 206.266C210.344 205.979 210.186 205.72 209.96 205.522C209.921 205.379 209.893 205.276 209.854 205.133C210.139 204.417 210.64 203.798 211.293 203.358C211.945 202.917 212.719 202.674 213.517 202.659C214.314 202.645 215.097 202.859 215.766 203.276C216.436 203.693 216.961 204.292 217.274 204.998C219.078 208.957 221.404 213.052 220.311 217.441C227.666 202.068 224.925 183.054 213.702 170.067C210.62 168.47 208.106 165.606 207.426 162.26C208.948 162.74 210.828 161.536 209.672 160.008C209.172 159.425 208.667 158.846 208.166 158.263C213.872 152.304 220.833 161.524 214.566 169.553C216.667 172.038 218.492 174.727 220.011 177.577C219.636 174.539 220.017 171.46 221.121 168.592C222.242 165.918 224.371 163.655 226.242 161.335C228.518 158.509 233.27 159.76 233.616 163.317C231.497 164.008 231.25 166.965 233.685 167.347C233.114 173.976 228.677 180.103 222.511 183.065C224.859 189.219 225.818 195.784 225.322 202.322C226.34 194.677 234.841 192.746 240.765 189.657C241.142 189.419 241.582 189.293 242.033 189.292C242.483 189.291 242.924 189.417 243.301 189.653C243.678 189.889 243.976 190.226 244.158 190.622C244.34 191.018 244.398 191.457 244.325 191.884C243.507 192.213 242.724 192.62 241.989 193.098C241.644 193.325 241.381 193.65 241.236 194.026C241.091 194.403 241.07 194.814 241.177 195.202C241.284 195.591 241.513 195.938 241.833 196.197C242.153 196.455 242.548 196.612 242.965 196.645C240.034 203.82 232.321 208.69 224.351 208.736C223.617 211.945 222.538 215.072 221.131 218.066L209.302 218.175C209.258 218.048 209.219 217.918 209.18 217.792C210.275 217.848 211.374 217.775 212.451 217.575C209.521 214.301 207.264 212.638 208.905 208.016L208.905 208.016Z" fill="#F2F2F2"/>
<path d="M84.7634 98.9248C84.7634 98.9248 75.3918 123.496 75.2404 126.245C75.089 128.995 72.4163 163.765 70.1748 165.786C67.9333 167.806 61.0804 199.128 66.4126 201.578C71.7448 204.028 88.5676 199.969 88.5676 199.969L94.4199 162.971L96.408 134.625C96.408 134.625 102.46 201.374 113.438 201.177C124.415 200.981 137.792 196.959 137.792 196.959L122.427 156.536C122.427 156.536 122.644 108.68 119.083 99.0275C115.522 89.3752 84.7634 98.9248 84.7634 98.9248Z" fill="#2F2E41"/>
<path d="M112.571 35.621L100.02 36.7269L97.9984 42.6981C97.9984 42.6981 87.4951 48.2475 89.8208 50.7686C92.1466 53.2897 89.3008 70.2798 89.3008 70.2798L89.9435 84.0709C89.9435 84.0709 89.2531 93.6257 87.1868 95.8272C85.1206 98.0287 79.7148 103.427 83.5344 100.844C96.9272 91.7887 120.336 99.4296 120.336 99.4296L116.992 79.7239C116.992 79.7239 124.588 47.461 121.59 44.7362C118.593 42.0115 115.764 41.6671 115.764 41.6671L112.571 35.621Z" fill="#E36D64" fill-opacity="0.59"/>
<path d="M46.6236 98.1276C47.2541 98.0146 47.8513 97.77 48.3729 97.411C48.8946 97.052 49.3281 96.5873 49.6429 96.0497C49.9577 95.5121 50.1462 94.9146 50.195 94.2994C50.2438 93.6841 50.1518 93.066 49.9255 92.4886L71.0938 75.211L63.3376 72.9585L43.9619 90.0977C42.9789 90.5278 42.1941 91.2898 41.7561 92.2394C41.3181 93.189 41.2574 94.2602 41.5855 95.25C41.9136 96.2398 42.6076 97.0794 43.5362 97.6098C44.4647 98.1401 45.5633 98.3244 46.6236 98.1276Z" fill="#FFB8B8"/>
<path d="M100.383 52.934C100.383 52.934 104.554 44.7161 94.5692 46.1198C84.5845 47.5236 46.7207 84.8888 46.7207 84.8888L53.0573 92.9041L91.3244 60.2843L100.383 52.934Z" fill="#E36D64" fill-opacity="0.59"/>
<path d="M84.1239 38.9946L44.5365 87.7868C43.8516 88.6336 43.5437 89.7071 43.6801 90.772C43.8165 91.8369 44.3862 92.8063 45.2642 93.4679C54.4574 114.943 81.9611 130.867 114.315 145.321C115.195 145.981 116.311 146.277 117.418 146.146C118.525 146.015 119.533 145.466 120.22 144.621L159.808 95.829C160.493 94.9824 160.802 93.9087 160.665 92.8436C160.529 91.7785 159.959 90.809 159.08 90.1479C131.929 75.3984 108.592 58.3098 90.0291 38.2945C89.1488 37.6357 88.033 37.3394 86.9261 37.4706C85.8192 37.6019 84.8115 38.1499 84.1239 38.9946Z" fill="#E6E6E6"/>
<path d="M157.028 94.7189L144.978 109.571C137.617 118.589 126.846 124.437 115.017 125.84C103.189 127.242 91.2638 124.084 81.8475 117.056L48.0779 91.6966C47.5777 91.3208 47.2528 90.7694 47.1745 90.1635C47.0963 89.5575 47.2711 88.9464 47.6606 88.4643L85.914 41.3163C86.3056 40.8358 86.8793 40.5243 87.5094 40.4502C88.1394 40.376 88.7742 40.5454 89.2746 40.921C106.357 62.1425 129.223 78.657 156.614 91.4893C157.114 91.8652 157.438 92.4163 157.515 93.0218C157.593 93.6272 157.418 94.2376 157.028 94.7189Z" fill="white"/>
<path d="M83.3328 65.6304L75.4852 75.3028C75.2769 75.559 74.9714 75.7251 74.6359 75.7648C74.3004 75.8044 73.9622 75.7143 73.6957 75.5142C73.4292 75.314 73.2562 75.0203 73.2147 74.6976C73.1732 74.3748 73.2666 74.0494 73.4744 73.7928L81.322 64.1205C81.425 63.9933 81.5531 63.8869 81.6988 63.8073C81.8446 63.7278 82.0052 63.6767 82.1715 63.6569C82.3379 63.6371 82.5066 63.649 82.6681 63.692C82.8296 63.735 82.9808 63.8081 83.1129 63.9074C83.245 64.0066 83.3555 64.1298 83.438 64.2701C83.5206 64.4104 83.5736 64.565 83.594 64.7251C83.6144 64.8851 83.6019 65.0474 83.5571 65.2028C83.5122 65.3581 83.436 65.5034 83.3328 65.6304H83.3328Z" fill="#CCCCCC"/>
<path d="M98.0539 58.4558L80.8198 79.697C80.7168 79.824 80.5887 79.9303 80.443 80.0097C80.2973 80.0891 80.1367 80.1401 79.9705 80.1598C79.8042 80.1795 79.6356 80.1675 79.4742 80.1246C79.3128 80.0816 79.1617 80.0084 79.0297 79.9093C78.8977 79.8101 78.7872 79.6869 78.7047 79.5467C78.6222 79.4065 78.5691 79.252 78.5486 79.0921C78.5282 78.9322 78.5406 78.7699 78.5853 78.6146C78.63 78.4594 78.706 78.3141 78.8091 78.187L96.0431 56.9458C96.1461 56.8185 96.2741 56.712 96.4199 56.6323C96.5657 56.5526 96.7264 56.5014 96.8928 56.4815C97.0592 56.4616 97.228 56.4735 97.3896 56.5165C97.5512 56.5595 97.7024 56.6327 97.8346 56.7319C97.9668 56.8312 98.0773 56.9546 98.1599 57.0949C98.2424 57.2353 98.2954 57.39 98.3158 57.5501C98.3362 57.7102 98.3235 57.8726 98.2786 58.028C98.2336 58.1834 98.1573 58.3288 98.0539 58.4558H98.0539Z" fill="#CCCCCC"/>
<path d="M68.6602 93.8859C73.2997 93.8859 77.0607 90.2675 77.0607 85.8041C77.0607 81.3407 73.2997 77.7224 68.6602 77.7224C64.0208 77.7224 60.2598 81.3407 60.2598 85.8041C60.2598 90.2675 64.0208 93.8859 68.6602 93.8859Z" fill="#E36D64" fill-opacity="0.59"/>
<path d="M98.968 75.2435L77.8011 101.332C77.5802 101.548 77.2843 101.679 76.9697 101.699C76.6551 101.719 76.3439 101.627 76.0954 101.44C75.8469 101.254 75.6784 100.986 75.6222 100.687C75.5659 100.389 75.6258 100.081 75.7904 99.822L96.9572 73.7336C97.1781 73.5172 97.4741 73.3865 97.7886 73.3666C98.1032 73.3466 98.4144 73.4387 98.663 73.6253C98.9115 73.812 99.0799 74.08 99.1362 74.3785C99.1924 74.6769 99.1326 74.9848 98.968 75.2435Z" fill="#CCCCCC"/>
<path d="M112.7 69.2871L83.1566 105.7C82.9357 105.917 82.6398 106.047 82.3252 106.067C82.0106 106.087 81.6994 105.995 81.4509 105.809C81.2023 105.622 81.0339 105.354 80.9776 105.055C80.9214 104.757 80.9813 104.449 81.1458 104.19L110.69 67.7772C110.91 67.5607 111.206 67.4301 111.521 67.4101C111.836 67.3902 112.147 67.4823 112.395 67.6689C112.644 67.8556 112.812 68.1236 112.869 68.4221C112.925 68.7205 112.865 69.0284 112.7 69.2871Z" fill="#CCCCCC"/>
<path d="M112.597 85.478L91.43 111.567C91.2091 111.783 90.9132 111.914 90.5986 111.934C90.284 111.953 89.9728 111.861 89.7243 111.675C89.4758 111.488 89.3073 111.22 89.2511 110.922C89.1948 110.623 89.2547 110.315 89.4193 110.057L110.586 83.9681C110.807 83.7517 111.103 83.621 111.418 83.6011C111.732 83.5811 112.043 83.6732 112.292 83.8598C112.54 84.0465 112.709 84.3146 112.765 84.613C112.821 84.9114 112.761 85.2193 112.597 85.478Z" fill="#CCCCCC"/>
<path d="M140.605 88.6952L119.438 114.784C119.217 115 118.921 115.131 118.606 115.151C118.292 115.171 117.981 115.079 117.732 114.892C117.484 114.705 117.315 114.437 117.259 114.139C117.203 113.84 117.262 113.532 117.427 113.274L138.594 87.1852C138.815 86.9688 139.111 86.8382 139.425 86.8182C139.74 86.7983 140.051 86.8904 140.3 87.077C140.548 87.2636 140.717 87.5317 140.773 87.8302C140.829 88.1286 140.769 88.4365 140.605 88.6952Z" fill="#E36D64" fill-opacity="0.59"/>
<path d="M126.329 79.5215L96.7855 115.935C96.5646 116.151 96.2687 116.282 95.9541 116.302C95.6395 116.322 95.3283 116.229 95.0797 116.043C94.8312 115.856 94.6628 115.588 94.6065 115.29C94.5503 114.991 94.6102 114.683 94.7747 114.425L124.319 78.0115C124.539 77.7951 124.835 77.6645 125.15 77.6445C125.465 77.6246 125.776 77.7167 126.024 77.9033C126.273 78.0899 126.441 78.358 126.497 78.6564C126.554 78.9549 126.494 79.2628 126.329 79.5215Z" fill="#CCCCCC"/>
<path d="M91.5293 20.2059C91.5285 22.1691 92.0287 24.1024 92.9859 25.8363C93.9432 27.5701 95.3281 29.0513 97.0193 30.1499C98.7105 31.2486 100.656 31.931 102.685 32.1374C104.715 32.3438 106.766 32.0677 108.658 31.3335C110.551 30.5993 112.227 29.4293 113.54 27.9264C114.853 26.4234 115.762 24.6334 116.188 22.7134C116.614 20.7934 116.543 18.8022 115.982 16.9146C115.422 15.027 114.388 13.3007 112.972 11.8872L112.912 11.8297C112.812 11.7289 112.712 11.6282 112.608 11.5322C112.607 11.5322 112.606 11.5321 112.606 11.5318C112.605 11.5316 112.605 11.5312 112.604 11.5308C112.604 11.5304 112.603 11.5298 112.603 11.5292C112.603 11.5286 112.603 11.528 112.603 11.5274C112.473 11.4122 112.343 11.2971 112.209 11.1868C110.407 9.66738 108.189 8.67966 105.819 8.34188C103.449 8.0041 101.028 8.33056 98.8465 9.2822C96.6646 10.2338 94.814 11.7703 93.5162 13.7076C92.2185 15.645 91.5287 17.9011 91.5293 20.2059V20.2059Z" fill="#2F2E41"/>
<path d="M107.069 33.0378C112.842 33.0378 117.523 28.5351 117.523 22.9808C117.523 17.4264 112.842 12.9237 107.069 12.9237C101.296 12.9237 96.6152 17.4264 96.6152 22.9808C96.6152 28.5351 101.296 33.0378 107.069 33.0378Z" fill="#FFB8B8"/>
<path d="M95.9237 25.6609C94.9019 21.2309 96.3788 16.2677 99.5989 13.3103C101.218 11.8522 103.233 10.8633 105.41 10.4572C107.588 10.0512 109.84 10.2444 111.909 11.0148C112.172 11.1169 112.435 11.2286 112.693 11.3452L112.813 11.3996V11.4165C112.836 11.432 112.859 11.4483 112.882 11.4648C112.931 11.5088 112.991 11.5403 113.055 11.5565C113.963 11.5337 114.865 11.6956 115.703 12.0317C116.541 12.3678 117.296 12.8705 117.918 13.5068C119.539 15.1981 120.301 17.9314 120.068 21.203L120.06 21.3053L119.97 21.3597C118.743 22.1075 117.47 22.7827 116.158 23.3815C111.569 25.4575 107.379 25.8422 103.353 24.556L103.279 24.5324L101.589 21.8074C101.242 23.6868 101.427 29.9208 99.436 30.2586L95.9669 25.8488L95.9237 25.6609Z" fill="#2F2E41"/>
<path d="M73.918 34.4176C77.4754 32.6511 72.9002 26.2399 73.8196 22.4915C74.7389 18.743 81.3594 17.5374 81.7811 13.7075C82.2029 9.87752 83.1951 5.92733 85.822 3.02114C87.5007 1.16409 89.9741 -0.206858 92.5208 0.0257496C93.3824 0.104449 94.2163 0.360883 94.9657 0.777586C95.715 1.19429 96.3622 1.76148 96.8632 2.4405C97.3642 3.11953 97.7071 3.89445 97.8687 4.7125C98.0303 5.53054 98.0067 6.37248 97.7996 7.18097C98.5247 6.19256 100.401 6.40678 100.866 7.53106C101.279 8.53053 100.366 9.74118 99.2928 9.82961C97.888 11.4986 96.2795 13.2698 94.0787 13.6064C93.7281 13.6839 93.3637 13.6837 93.0132 13.6059C92.6626 13.528 92.3351 13.3746 92.0552 13.1571C91.5375 12.6788 91.4972 11.7224 92.1114 11.365C89.3457 12.4219 87.7242 15.2987 87.3138 18.1343C86.9035 20.97 87.4712 23.839 87.8453 26.6793C88.2194 29.5195 88.3806 32.5074 87.2231 35.1449C85.8554 38.2612 82.7066 40.4946 79.2702 41.2109C75.8338 41.9272 72.1741 41.2271 69.0636 39.6499C65.9531 38.0726 63.3592 35.6648 61.2402 32.9653C64.8903 35.4588 69.9401 36.3929 73.918 34.4176Z" fill="#2F2E41"/>
<path d="M102.074 22.3307C98.4192 28.3884 105.302 38.5953 98.3653 40.7148L98.9368 40.165C103.124 35.2103 94.3724 24.7234 98.5594 19.7686C99.2099 19.0418 99.7684 18.2432 100.223 17.3896" fill="#2F2E41"/>
<path d="M96.4121 25.5693C96.4121 25.5693 99.5088 14.449 112.783 11.8823C112.798 11.8776 112.848 11.8584 112.913 11.8296C112.953 11.8056 113.003 11.7816 113.052 11.7576C112.903 11.676 112.758 11.6041 112.609 11.5321C112.608 11.5321 112.607 11.532 112.607 11.5317C112.606 11.5315 112.606 11.5312 112.605 11.5307C112.605 11.5303 112.604 11.5297 112.604 11.5291C112.604 11.5285 112.604 11.5279 112.604 11.5273C112.474 11.4122 112.344 11.297 112.21 11.1867L111.831 11.2011C111.831 11.2011 98.5115 9.17182 96.4121 25.5693Z" fill="#FD6584"/>
<path d="M2.21405e-06 218.521C-0.000193167 218.584 0.0125445 218.647 0.0374757 218.705C0.0624069 218.763 0.0990448 218.816 0.145278 218.86C0.191512 218.905 0.246427 218.94 0.30687 218.964C0.367314 218.988 0.43209 219 0.497472 219H299.503C299.635 219 299.761 218.95 299.854 218.86C299.948 218.77 300 218.648 300 218.521C300 218.394 299.948 218.273 299.854 218.183C299.761 218.093 299.635 218.043 299.503 218.043H0.497446C0.432067 218.043 0.367297 218.055 0.306858 218.079C0.246418 218.103 0.191502 218.138 0.145272 218.183C0.0990416 218.227 0.0624064 218.28 0.0374757 218.338C0.0125451 218.396 -0.000190377 218.459 2.21405e-06 218.521Z" fill="#CCCCCC"/>
</g>
<defs>
<clipPath id="clip0_205_1190">
<rect width="300" height="219" fill="white"/>
</clipPath>
</defs>
</svg>
