<svg width="300" height="219" viewBox="0 0 300 219" fill="none" xmlns="http://www.w3.org/2000/svg">
<g clip-path="url(#clip0_536_66)">
<path d="M105.732 207.896L101.656 207.857L99.8516 189.767L105.867 189.824L105.732 207.896Z" fill="#FFB6B6"/>
<path d="M92.6758 215.184C92.6722 215.727 92.8604 216.25 93.1991 216.637C93.5378 217.025 93.9994 217.245 94.4826 217.251L102.587 217.327L104.005 214.093L104.526 217.343L107.584 217.374L106.812 205.783L105.748 205.703L101.409 205.367L100.009 205.261L99.9844 208.541L93.4744 213.506C93.2305 213.692 93.0305 213.942 92.8914 214.234C92.7523 214.526 92.6783 214.852 92.6758 215.184V215.184Z" fill="#2F2E41"/>
<path d="M147.088 207.896L143.011 207.857L141.207 189.767L147.223 189.824L147.088 207.896Z" fill="#FFB6B6"/>
<path d="M134.031 215.184C134.028 215.727 134.216 216.25 134.555 216.637C134.893 217.025 135.355 217.245 135.838 217.251L143.942 217.327L145.361 214.093L145.882 217.343L148.94 217.374L148.168 205.783L147.104 205.703L142.764 205.367L141.364 205.261L141.34 208.541L134.83 213.506C134.586 213.692 134.386 213.942 134.247 214.234C134.108 214.526 134.034 214.852 134.031 215.184Z" fill="#2F2E41"/>
<path d="M100.703 63.0277L119.048 47.1532C119.823 46.478 120.332 45.4871 120.463 44.3943C120.595 43.3016 120.339 42.1945 119.75 41.312C119.446 40.8555 119.062 40.4734 118.623 40.1891C118.183 39.9048 117.696 39.7242 117.192 39.6583C116.688 39.5924 116.177 39.6425 115.691 39.8058C115.205 39.969 114.754 40.2418 114.364 40.6077L95.758 57.7542L84.0615 67.6373C83.4827 67.2589 82.8143 67.09 82.1472 67.1536C81.48 67.2173 80.8465 67.5102 80.3326 67.9928C79.8187 68.4754 79.4494 69.1241 79.2749 69.8509C79.1003 70.5776 79.129 71.3472 79.357 72.055C79.5849 72.7629 80.0012 73.3746 80.5491 73.8072C81.0971 74.2398 81.7502 74.4722 82.4197 74.4729C83.0892 74.4735 83.7427 74.2425 84.2914 73.811C84.84 73.3795 85.2573 72.7686 85.4864 72.0613L100.703 63.0277Z" fill="#FFB6B6"/>
<path d="M115.654 66.677L114.846 86.9833L142.31 90.72C140.149 82.5605 136.605 71.2273 138.229 65.5488L115.654 66.677Z" fill="#A0616A"/>
<path d="M131.267 29.4498H122.807L119.174 36.4402L117.443 36.3328C114.069 37.7938 112.724 39.306 110.862 43.3349L104.318 49.5132L109.362 56.318C112.845 55.6763 114.101 52.636 112.995 47.0522C112.995 47.0522 109.18 54.5273 114.675 58.2049C114.675 58.2049 113.695 65.1337 114.675 65.0592C115.655 64.9847 117.913 63.5746 115.655 64.9848C113.398 66.3949 113.785 66.4558 113.858 66.9127C115.077 74.4641 116.086 80.1347 116.086 80.1347L139.958 82.781C139.958 82.781 138.582 66.5485 138.657 65.6256C138.732 64.7027 138.23 66.959 138.732 64.7027C139.233 62.4465 139.986 63.2926 139.233 62.4465C138.481 61.6004 144.406 60.8717 142.094 56.8057L149.827 54.5375L145.504 42.9862C145.504 39.086 139.933 35.9243 136.464 35.9243H136.02L131.267 29.4498Z" fill="#E36D64" fill-opacity="0.8"/>
<path d="M140.269 79.7138C130.93 83.3259 122.522 82.5328 115.413 75.5981C115.413 75.5981 113.412 83.915 111.386 82.7809C109.361 81.6468 110.362 84.8203 109.806 85.9839C109.215 87.2192 109.901 89.303 107.95 90.0115C105.999 90.7199 106.732 92.802 106.1 94.3343C101.68 105.057 96.6324 120.236 93.2223 139.488C89.7183 159.27 98.2656 192.414 98.2656 192.414L106.335 191.658L108.352 148.561L117.579 130.344C117.579 130.344 122.112 127.377 119.267 125.871C116.421 124.366 118.328 122.5 120.4 122.866C122.473 123.232 124.827 111.134 124.827 111.134C121.871 119.486 140.293 193.17 140.293 193.17L148.026 192.414L143.655 89.5858L140.269 79.7138Z" fill="#2F2E41"/>
<path d="M136.287 11.9002C137.204 14.4684 139.792 19.5187 140.142 22.2738L139.984 22.0994C139.683 22.6774 139.342 23.227 138.962 23.7431C138.282 22.9397 137.46 22.3044 136.549 21.8776C137.046 23.025 137.334 24.2727 137.396 25.5472C135.712 27.1964 131.41 26.2014 129.261 27.0803C125.803 28.4912 122.131 28.9935 118.505 29.4106C117.218 29.5596 115.778 29.65 114.876 28.795C113.974 27.94 114.511 26.3566 114.026 25.159C110.57 16.6287 113.76 13.551 116.469 9.68298C117.066 8.83177 117.063 7.56151 117.789 6.74936C118.795 5.62363 120.339 5.27737 121.762 5C121.392 5.0219 121.024 4.93644 120.692 4.75187C120.36 4.56729 120.076 4.2898 119.867 3.94612C119.684 3.59986 119.59 3.20346 119.594 2.80065C119.599 2.39784 119.702 2.00428 119.893 1.66335C120.402 0.714781 121.46 0.163174 122.48 0.025373C123.485 -0.0513652 124.494 0.0462136 125.473 0.314686C126.107 0.408436 126.721 0.629059 127.286 0.966115C127.552 1.12597 127.769 1.37349 127.907 1.67557C128.045 1.97765 128.097 2.3199 128.058 2.65656C127.973 2.96745 127.826 3.25275 127.63 3.49119C127.433 3.72963 127.191 3.91504 126.922 4.03361C126.511 4.22885 126.079 4.36182 125.637 4.42901C127.667 4.13286 129.728 4.53862 131.548 5.59232C133.828 6.96002 135.367 9.33341 136.287 11.9002Z" fill="#2F2E41"/>
<path d="M123.94 26.2983C128.442 26.2983 132.092 22.1948 132.092 17.133C132.092 12.0711 128.442 7.96765 123.94 7.96765C119.439 7.96765 115.789 12.0711 115.789 17.133C115.789 22.1948 119.439 26.2983 123.94 26.2983Z" fill="#FFB6B6"/>
<path d="M131.783 12.2186C131.311 13.8247 129.96 14.3422 128.712 14.665C128.318 14.7681 127.922 14.8643 127.522 14.9498C127.375 14.7425 127.218 14.5393 127.054 14.3473C126.374 13.5439 125.552 12.9086 124.641 12.4819C125.035 13.3882 125.297 14.3598 125.416 15.3595C124.662 15.4826 123.903 15.5832 123.14 15.6613C122.494 15.8158 121.821 15.6855 121.258 15.2974C120.695 14.9093 120.287 14.293 120.117 13.5759C119.422 14.8531 118.601 16.0559 117.478 16.5633C116.836 16.8228 116.136 16.8441 115.482 16.6242C114.829 16.4042 114.255 15.9546 113.844 15.3411C113.172 14.4183 112.797 13.1787 112.528 11.9823C112.209 10.56 112.032 8.92168 112.658 8.01929C113.159 7.28897 114.024 7.27585 114.822 7.34065C116.583 7.49257 118.326 7.84782 120.023 8.4008L120.166 8.76391C119.875 6.79433 120.507 4.89933 121.677 4.2254C122.467 3.7748 123.416 3.85036 124.339 3.94177C125.524 4.00123 126.695 4.25587 127.815 4.69754C129.099 5.25298 130.199 6.24101 130.965 7.52644C131.784 8.92464 132.191 10.8316 131.783 12.2186Z" fill="#2F2E41"/>
<path d="M120.163 3.65231C120.244 3.62561 120.035 3.6599 120.107 3.66208C120.072 3.65974 120.036 3.65413 120.001 3.64529C119.995 3.64395 119.914 3.61483 119.968 3.63622C119.846 3.59551 119.738 3.51627 119.657 3.40805C119.465 3.14182 119.315 2.84121 119.212 2.51886C119.083 2.09287 118.874 1.70251 118.601 1.37338C118.524 1.28581 118.429 1.22003 118.325 1.18139C118.22 1.14274 118.109 1.13232 118 1.15097C117.892 1.16961 117.789 1.2168 117.699 1.28871C117.61 1.36061 117.537 1.45519 117.486 1.56479C117.327 1.95964 117.472 2.44614 117.586 2.83395C117.702 3.23689 117.876 3.616 118.101 3.95666C118.476 4.51373 118.988 4.93588 119.573 5.17166C120.251 5.44836 120.99 5.4721 121.68 5.23936C121.772 5.19681 121.85 5.12534 121.906 5.03366C121.961 4.94198 121.992 4.83406 121.994 4.72303C121.996 4.61201 121.97 4.50267 121.918 4.40835C121.866 4.31402 121.79 4.23878 121.701 4.1918L120.549 3.66176C120.488 3.63177 120.423 3.6155 120.357 3.61387C120.291 3.61225 120.225 3.62531 120.163 3.6523C120.101 3.67929 120.045 3.71968 119.997 3.77118C119.949 3.82268 119.911 3.88427 119.884 3.95243C119.858 4.0206 119.843 4.094 119.842 4.16845C119.84 4.2429 119.852 4.31694 119.876 4.38635C119.9 4.45576 119.936 4.51917 119.982 4.57296C120.027 4.62675 120.082 4.66988 120.143 4.69987L121.294 5.22989L121.315 4.18233C121.171 4.22897 121.023 4.25739 120.874 4.26708C120.715 4.28502 120.554 4.2774 120.396 4.24444C120.246 4.22222 120.097 4.1816 119.955 4.1233C119.863 4.08571 119.773 4.04292 119.686 3.9951C119.654 3.97771 119.622 3.95965 119.591 3.94094C119.593 3.94229 119.459 3.85455 119.518 3.89577C119.369 3.78875 119.229 3.66635 119.101 3.53016C119.055 3.48187 119.013 3.42948 118.975 3.37351C118.91 3.28288 118.849 3.18803 118.793 3.08942C118.68 2.88061 118.59 2.65672 118.526 2.42293C118.496 2.32467 118.472 2.22476 118.452 2.12361C118.446 2.06809 118.437 2.01306 118.425 1.95891C118.382 1.82987 118.433 2.03425 118.384 2.09016L118.172 2.26605C118.132 2.2794 118.09 2.2825 118.049 2.27511C118.007 2.26771 117.968 2.25002 117.934 2.22333C117.909 2.18354 117.915 2.19014 117.951 2.24314C117.993 2.30551 118.031 2.37081 118.066 2.43866C118.142 2.59839 118.211 2.76236 118.272 2.92994C118.399 3.28634 118.559 3.62651 118.75 3.94466C118.937 4.26645 119.21 4.51362 119.529 4.65093C119.849 4.78824 120.198 4.80868 120.529 4.70935C120.653 4.65385 120.752 4.54579 120.806 4.40847C120.86 4.27114 120.863 4.11557 120.816 3.97531C120.765 3.83708 120.669 3.72625 120.547 3.66604C120.426 3.60583 120.288 3.60091 120.163 3.65231V3.65231Z" fill="#2F2E41"/>
<path d="M107.45 103.231C120.761 103.231 131.551 91.0979 131.551 76.131C131.551 61.164 120.761 49.0309 107.45 49.0309C94.1384 49.0309 83.3477 61.164 83.3477 76.131C83.3477 91.0979 94.1384 103.231 107.45 103.231Z" fill="white"/>
<path d="M107.45 103.609C102.616 103.609 97.8916 101.998 93.8728 98.9783C89.854 95.959 86.7217 91.6675 84.872 86.6466C83.0223 81.6256 82.5384 76.1007 83.4813 70.7704C84.4242 65.4402 86.7517 60.5441 90.1694 56.7012C93.5871 52.8583 97.9416 50.2412 102.682 49.181C107.423 48.1207 112.336 48.6648 116.802 50.7446C121.267 52.8243 125.084 56.3462 127.769 60.8649C130.455 65.3837 131.888 70.6963 131.888 76.1309C131.881 83.4161 129.304 90.4005 124.722 95.5519C120.141 100.703 113.929 103.601 107.45 103.609V103.609ZM107.45 49.4091C102.749 49.4091 98.1546 50.9763 94.2463 53.9125C90.3381 56.8488 87.292 61.0222 85.4932 65.9051C83.6944 70.7879 83.2238 76.1608 84.1408 81.3444C85.0578 86.5279 87.3213 91.2894 90.645 95.0265C93.9687 98.7636 98.2034 101.309 102.814 102.34C107.424 103.371 112.202 102.842 116.545 100.819C120.887 98.7964 124.599 95.3714 127.21 90.9769C129.822 86.5825 131.216 81.416 131.216 76.1309C131.208 69.0463 128.702 62.2541 124.247 57.2445C119.791 52.2349 113.751 49.417 107.45 49.4091V49.4091Z" fill="#3F3D56"/>
<path d="M104.162 90.2353C103.746 90.2353 103.336 90.1263 102.963 89.9169C102.591 89.7076 102.267 89.4037 102.018 89.0292L95.4424 79.1713C95.2312 78.8546 95.0775 78.4942 94.9901 78.1107C94.9027 77.7273 94.8834 77.3282 94.9332 76.9363C94.983 76.5444 95.101 76.1674 95.2803 75.8268C95.4597 75.4862 95.697 75.1886 95.9787 74.9511C96.2604 74.7136 96.5809 74.5408 96.9219 74.4426C97.263 74.3443 97.6179 74.3226 97.9664 74.3786C98.3149 74.4346 98.6503 74.5672 98.9532 74.7689C99.2561 74.9706 99.5208 75.2374 99.732 75.5541L104.034 82.0029L115.083 63.3685C115.278 63.0391 115.529 62.7562 115.821 62.5359C116.114 62.3156 116.442 62.1623 116.787 62.0847C117.133 62.007 117.488 62.0066 117.834 62.0834C118.179 62.1603 118.508 62.3128 118.8 62.5324C119.093 62.752 119.345 63.0343 119.541 63.3633C119.737 63.6922 119.873 64.0613 119.942 64.4495C120.011 64.8377 120.012 65.2374 119.943 65.6257C119.875 66.0141 119.739 66.3835 119.544 66.7129L106.393 88.8928C106.155 89.294 105.835 89.6251 105.46 89.8585C105.085 90.0919 104.666 90.2208 104.237 90.2343C104.212 90.2348 104.187 90.2353 104.162 90.2353Z" fill="#E36D64" fill-opacity="0.59"/>
<path d="M80.9023 217.643C80.9022 217.702 80.9124 217.761 80.9325 217.815C80.9525 217.87 80.982 217.92 81.0192 217.961C81.0564 218.003 81.1005 218.036 81.1492 218.059C81.1978 218.082 81.2499 218.093 81.3025 218.093H166.463C166.57 218.093 166.671 218.045 166.746 217.961C166.821 217.877 166.864 217.762 166.864 217.643C166.864 217.524 166.821 217.409 166.746 217.325C166.671 217.241 166.57 217.193 166.463 217.193H81.3025C81.2499 217.193 81.1978 217.204 81.1492 217.227C81.1005 217.25 81.0564 217.283 81.0192 217.324C80.982 217.366 80.9525 217.416 80.9325 217.471C80.9124 217.525 80.9022 217.584 80.9023 217.643Z" fill="#CCCCCC"/>
<path d="M156.304 77.0579L148.426 52.5835C148.089 51.5477 147.404 50.7022 146.518 50.2295C145.632 49.7567 144.616 49.6947 143.69 50.0567V50.0567C143.21 50.2439 142.77 50.539 142.396 50.9238C142.021 51.3086 141.72 51.7752 141.511 52.2951C141.302 52.8149 141.19 53.3772 141.18 53.9475C141.171 54.5179 141.265 55.0845 141.457 55.6126L150.334 80.7534L155.155 96.2856C154.659 96.7907 154.313 97.4554 154.164 98.1894C154.015 98.9234 154.071 99.6911 154.324 100.388C154.577 101.085 155.014 101.678 155.577 102.086C156.14 102.493 156.801 102.697 157.47 102.667C158.139 102.638 158.784 102.378 159.316 101.922C159.849 101.467 160.245 100.838 160.449 100.121C160.653 99.4037 160.655 98.6334 160.456 97.9146C160.258 97.1958 159.867 96.5633 159.337 96.103L156.304 77.0579Z" fill="#FFB6B6"/>
<path d="M144.447 41.684L150.835 54.5374C150.835 54.5374 136.113 60.2051 136.077 59.2615C136.042 58.3179 136.809 45.2233 136.809 45.2233L144.447 41.684Z" fill="#E36D64" fill-opacity="0.8"/>
</g>
<path d="M300 218.546C300 218.606 299.988 218.665 299.965 218.72C299.941 218.775 299.906 218.825 299.863 218.868C299.819 218.91 299.767 218.943 299.71 218.966C299.653 218.989 299.591 219 299.529 219H0.470561C0.345761 219 0.226076 218.952 0.137829 218.867C0.0495821 218.782 0 218.667 0 218.546C0 218.426 0.0495821 218.311 0.137829 218.226C0.226076 218.141 0.345761 218.093 0.470561 218.093H299.529C299.591 218.093 299.653 218.104 299.71 218.127C299.767 218.15 299.819 218.183 299.863 218.225C299.906 218.267 299.941 218.317 299.965 218.373C299.988 218.428 300 218.487 300 218.546Z" fill="#CCCCCC"/>
<defs>
<clipPath id="clip0_536_66">
<rect width="233" height="218.093" fill="white" transform="translate(1)"/>
</clipPath>
</defs>
</svg>
