<svg width="300" height="212" viewBox="0 0 300 212" fill="none" xmlns="http://www.w3.org/2000/svg">
<g clip-path="url(#clip0_533_64)">
<path d="M105.732 202.088L101.656 202.05L99.8516 184.466L105.867 184.521L105.732 202.088Z" fill="#FFB6B6"/>
<path d="M92.6758 209.172C92.6722 209.7 92.8604 210.208 93.1991 210.585C93.5378 210.962 93.9994 211.176 94.4826 211.181L102.587 211.255L104.005 208.112L104.526 211.271L107.584 211.302L106.812 200.034L105.748 199.957L101.409 199.63L100.009 199.527L99.9844 202.715L93.4744 207.541C93.2305 207.722 93.0305 207.965 92.8914 208.249C92.7523 208.533 92.6783 208.85 92.6758 209.172V209.172Z" fill="#2F2E41"/>
<path d="M147.088 202.088L143.011 202.05L141.207 184.466L147.223 184.521L147.088 202.088Z" fill="#FFB6B6"/>
<path d="M134.031 209.172C134.028 209.7 134.216 210.208 134.555 210.585C134.893 210.962 135.355 211.176 135.838 211.181L143.942 211.255L145.361 208.112L145.882 211.271L148.94 211.302L148.168 200.034L147.104 199.957L142.764 199.63L141.364 199.527L141.34 202.715L134.83 207.541C134.586 207.722 134.386 207.965 134.247 208.249C134.108 208.533 134.034 208.85 134.031 209.172Z" fill="#2F2E41"/>
<path d="M100.703 61.2668L119.048 45.8358C119.823 45.1795 120.332 44.2163 120.463 43.1541C120.595 42.0918 120.339 41.0157 119.75 40.1578C119.446 39.7141 119.062 39.3427 118.623 39.0663C118.183 38.7899 117.696 38.6144 117.192 38.5503C116.688 38.4862 116.177 38.535 115.691 38.6937C115.205 38.8523 114.754 39.1176 114.364 39.4732L95.758 56.1407L84.0615 65.7477C83.4827 65.3799 82.8143 65.2157 82.1472 65.2775C81.48 65.3394 80.8465 65.6242 80.3326 66.0933C79.8187 66.5623 79.4494 67.193 79.2749 67.8994C79.1003 68.6059 79.129 69.354 79.357 70.042C79.5849 70.7301 80.0012 71.3247 80.5491 71.7452C81.0971 72.1657 81.7502 72.3916 82.4197 72.3923C83.0892 72.3929 83.7427 72.1683 84.2914 71.7489C84.84 71.3295 85.2573 70.7357 85.4864 70.0481L100.703 61.2668Z" fill="#FFB6B6"/>
<path d="M115.654 64.8141L114.846 84.5532L142.31 88.1855C140.149 80.2539 136.605 69.2374 138.229 63.7175L115.654 64.8141Z" fill="#A0616A"/>
<path d="M131.267 28.6271H122.807L119.174 35.4222L117.443 35.3177C114.069 36.738 112.724 38.2079 110.862 42.1242L104.318 48.13L109.362 54.7446C112.845 54.1208 114.101 51.1655 112.995 45.7377C112.995 45.7377 109.18 53.004 114.675 56.5788C114.675 56.5788 113.695 63.3141 114.675 63.2417C115.655 63.1693 117.913 61.7985 115.655 63.1693C113.398 64.54 113.785 64.5992 113.858 65.0433C115.077 72.3838 116.086 77.896 116.086 77.896L139.958 80.4684C139.958 80.4684 138.582 64.6894 138.657 63.7922C138.732 62.8951 138.23 65.0884 138.732 62.8951C139.233 60.7019 139.986 61.5244 139.233 60.7019C138.481 59.8794 144.406 59.1711 142.094 55.2188L149.827 53.0139L145.504 41.7853C145.504 37.994 139.933 34.9206 136.464 34.9206H136.02L131.267 28.6271Z" fill="#E36D64" fill-opacity="0.8"/>
<path d="M140.269 77.4868C130.93 80.998 122.522 80.2271 115.413 73.4862C115.413 73.4862 113.412 81.5708 111.386 80.4683C109.361 79.3659 110.362 82.4508 109.806 83.5818C109.215 84.7826 109.901 86.8082 107.95 87.4969C105.999 88.1855 106.732 90.2094 106.1 91.6989C101.68 102.122 96.6324 116.877 93.2223 135.591C89.7183 154.821 98.2656 187.038 98.2656 187.038L106.335 186.303L108.352 144.41L117.579 126.703C117.579 126.703 122.112 123.818 119.267 122.355C116.421 120.891 118.328 119.078 120.4 119.434C122.473 119.789 124.827 108.03 124.827 108.03C121.871 116.148 140.293 187.773 140.293 187.773L148.026 187.038L143.655 87.0831L140.269 77.4868Z" fill="#2F2E41"/>
<path d="M136.287 11.5677C137.204 14.0642 139.792 18.9735 140.142 21.6516L139.984 21.482C139.683 22.0438 139.342 22.5782 138.962 23.0798C138.282 22.2988 137.46 21.6812 136.549 21.2665C137.046 22.3818 137.334 23.5946 137.396 24.8335C135.712 26.4366 131.41 25.4694 129.261 26.3238C125.803 27.6953 122.131 28.1835 118.505 28.589C117.218 28.7338 115.778 28.8217 114.876 27.9906C113.974 27.1594 114.511 25.6203 114.026 24.4562C110.57 16.1641 113.76 13.1724 116.469 9.41247C117.066 8.58504 117.063 7.35027 117.789 6.56081C118.795 5.46652 120.339 5.12994 121.762 4.86032C121.392 4.8816 121.024 4.79854 120.692 4.61911C120.36 4.43969 120.076 4.16996 119.867 3.83588C119.684 3.49929 119.59 3.11396 119.594 2.72241C119.599 2.33086 119.702 1.94828 119.893 1.61688C120.402 0.694812 121.46 0.158615 122.48 0.0246642C123.485 -0.0499302 124.494 0.0449226 125.473 0.305895C126.107 0.397026 126.721 0.611485 127.286 0.939125C127.552 1.09452 127.769 1.33512 127.907 1.62876C128.045 1.9224 128.097 2.25509 128.058 2.58234C127.973 2.88455 127.826 3.16188 127.63 3.39366C127.433 3.62543 127.191 3.80567 126.922 3.92092C126.511 4.11071 126.079 4.23996 125.637 4.30528C127.667 4.0174 129.728 4.41183 131.548 5.43609C133.828 6.76558 135.367 9.07267 136.287 11.5677Z" fill="#2F2E41"/>
<path d="M123.94 25.5635C128.442 25.5635 132.092 21.5747 132.092 16.6543C132.092 11.7338 128.442 7.745 123.94 7.745C119.439 7.745 115.789 11.7338 115.789 16.6543C115.789 21.5747 119.439 25.5635 123.94 25.5635Z" fill="#FFB6B6"/>
<path d="M131.783 11.8773C131.311 13.4385 129.96 13.9416 128.712 14.2553C128.318 14.3556 127.922 14.449 127.522 14.5322C127.375 14.3307 127.218 14.1332 127.054 13.9465C126.374 13.1655 125.552 12.548 124.641 12.1332C125.035 13.0142 125.297 13.9586 125.416 14.9304C124.662 15.0501 123.903 15.1479 123.14 15.2238C122.494 15.374 121.821 15.2474 121.258 14.8701C120.695 14.4928 120.287 13.8937 120.117 13.1966C119.422 14.4382 118.601 15.6074 117.478 16.1006C116.836 16.3528 116.136 16.3736 115.482 16.1598C114.829 15.946 114.255 15.5089 113.844 14.9125C113.172 14.0156 112.797 12.8106 112.528 11.6476C112.209 10.2651 112.032 8.67246 112.658 7.79528C113.159 7.08536 114.024 7.07262 114.822 7.1356C116.583 7.28328 118.326 7.6286 120.023 8.16613L120.166 8.5191C119.875 6.60455 120.507 4.76249 121.677 4.10738C122.467 3.66937 123.416 3.74282 124.339 3.83167C125.524 3.88947 126.695 4.137 127.815 4.56633C129.099 5.10626 130.199 6.06668 130.965 7.31621C131.784 8.67534 132.191 10.529 131.783 11.8773Z" fill="#2F2E41"/>
<path d="M120.163 3.5502C120.244 3.52425 120.035 3.55758 120.107 3.5597C120.072 3.55742 120.036 3.55196 120.001 3.54337C119.995 3.54207 119.914 3.51376 119.968 3.53455C119.846 3.49499 119.738 3.41796 119.657 3.31277C119.465 3.05397 119.315 2.76176 119.212 2.44841C119.083 2.03433 118.874 1.65486 118.601 1.33493C118.524 1.24981 118.429 1.18587 118.325 1.14831C118.22 1.11074 118.109 1.10061 118 1.11873C117.892 1.13686 117.789 1.18273 117.699 1.25262C117.61 1.32252 117.537 1.41446 117.486 1.52099C117.327 1.90481 117.472 2.37773 117.586 2.7547C117.702 3.14638 117.876 3.5149 118.101 3.84605C118.476 4.38756 118.988 4.79791 119.573 5.0271C120.251 5.29607 120.99 5.31915 121.68 5.09291C121.772 5.05155 121.85 4.98207 121.906 4.89296C121.961 4.80384 121.992 4.69893 121.994 4.59101C121.996 4.48308 121.97 4.3768 121.918 4.28511C121.866 4.19342 121.79 4.12028 121.701 4.07461L120.549 3.55939C120.488 3.53023 120.423 3.51441 120.357 3.51284C120.291 3.51126 120.225 3.52395 120.163 3.55019C120.101 3.57642 120.045 3.61569 119.997 3.66575C119.949 3.71581 119.911 3.77568 119.884 3.84194C119.858 3.90819 119.843 3.97955 119.842 4.05192C119.84 4.12429 119.852 4.19626 119.876 4.26373C119.9 4.3312 119.936 4.39284 119.982 4.44513C120.027 4.49742 120.082 4.53934 120.143 4.56849L121.294 5.0837L121.315 4.06541C121.171 4.11075 121.023 4.13838 120.874 4.14779C120.715 4.16523 120.554 4.15782 120.396 4.12578C120.246 4.10418 120.097 4.0647 119.955 4.00803C119.863 3.97149 119.773 3.9299 119.686 3.88341C119.654 3.8665 119.622 3.84895 119.591 3.83076C119.593 3.83207 119.459 3.74679 119.518 3.78686C119.369 3.68283 119.229 3.56385 119.101 3.43146C119.055 3.38452 119.013 3.33359 118.975 3.27919C118.91 3.19109 118.849 3.09888 118.793 3.00303C118.68 2.80006 118.59 2.58243 118.526 2.35516C118.496 2.25965 118.472 2.16253 118.452 2.06421C118.446 2.01024 118.437 1.95674 118.425 1.9041C118.382 1.77867 118.433 1.97734 118.384 2.03169L118.172 2.20266C118.132 2.21564 118.09 2.21866 118.049 2.21147C118.007 2.20428 117.968 2.18708 117.934 2.16114C117.909 2.12246 117.915 2.12888 117.951 2.18039C117.993 2.24102 118.031 2.3045 118.066 2.37045C118.142 2.52572 118.211 2.68511 118.272 2.84801C118.399 3.19445 118.559 3.52512 118.75 3.83438C118.937 4.14718 119.21 4.38744 119.529 4.52092C119.849 4.65439 120.198 4.67426 120.529 4.5777C120.653 4.52376 120.752 4.41872 120.806 4.28523C120.86 4.15174 120.863 4.00051 120.816 3.86417C120.765 3.72981 120.669 3.62207 120.547 3.56354C120.426 3.50501 120.288 3.50023 120.163 3.5502V3.5502Z" fill="#2F2E41"/>
<path d="M107.45 100.347C120.761 100.347 131.551 88.5529 131.551 74.0041C131.551 59.4553 120.761 47.6611 107.45 47.6611C94.1384 47.6611 83.3477 59.4553 83.3477 74.0041C83.3477 88.5529 94.1384 100.347 107.45 100.347Z" fill="white"/>
<path d="M107.45 100.715C102.616 100.715 97.8916 99.1481 93.8728 96.2132C89.854 93.2782 86.7217 89.1066 84.872 84.2259C83.0223 79.3452 82.5384 73.9746 83.4813 68.7933C84.4242 63.612 86.7517 58.8526 90.1694 55.1171C93.5871 51.3816 97.9416 48.8376 102.682 47.807C107.423 46.7763 112.336 47.3052 116.802 49.3269C121.267 51.3485 125.084 54.772 127.769 59.1645C130.455 63.557 131.888 68.7212 131.888 74.004C131.881 81.0857 129.304 87.8749 124.722 92.8824C120.141 97.8899 113.929 100.707 107.45 100.715V100.715ZM107.45 48.0287C102.749 48.0287 98.1546 49.5521 94.2463 52.4064C90.3381 55.2606 87.292 59.3174 85.4932 64.0638C83.6944 68.8103 83.2238 74.0331 84.1408 79.0718C85.0578 84.1106 87.3213 88.739 90.645 92.3717C93.9687 96.0045 98.2034 98.4784 102.814 99.4806C107.424 100.483 112.202 99.9684 116.545 98.0024C120.887 96.0363 124.599 92.707 127.21 88.4353C129.822 84.1636 131.216 79.1415 131.216 74.004C131.208 67.1173 128.702 60.5149 124.247 55.6452C119.791 50.7756 113.751 48.0364 107.45 48.0287V48.0287Z" fill="#3F3D56"/>
<path d="M104.162 87.7144C103.746 87.7144 103.336 87.6085 102.963 87.405C102.591 87.2015 102.267 86.906 102.018 86.542L95.4424 76.9595C95.2312 76.6517 95.0775 76.3014 94.9901 75.9286C94.9027 75.5558 94.8834 75.1679 94.9332 74.787C94.983 74.4061 95.101 74.0396 95.2803 73.7085C95.4597 73.3774 95.697 73.0881 95.9787 72.8572C96.2604 72.6264 96.5809 72.4584 96.9219 72.3629C97.263 72.2674 97.6179 72.2463 97.9664 72.3007C98.3149 72.3551 98.6503 72.4841 98.9532 72.6801C99.2561 72.8762 99.5208 73.1356 99.732 73.4434L104.034 79.712L115.083 61.5982C115.278 61.278 115.529 61.003 115.821 60.7889C116.114 60.5748 116.442 60.4257 116.787 60.3502C117.133 60.2748 117.488 60.2744 117.834 60.349C118.179 60.4237 118.508 60.572 118.8 60.7855C119.093 60.9989 119.345 61.2734 119.541 61.5931C119.737 61.9129 119.873 62.2717 119.942 62.649C120.011 63.0263 120.012 63.4149 119.943 63.7924C119.875 64.1699 119.739 64.529 119.544 64.8491L106.393 86.4095C106.155 86.7994 105.835 87.1213 105.46 87.3482C105.085 87.5751 104.666 87.7003 104.237 87.7135C104.212 87.714 104.187 87.7144 104.162 87.7144Z" fill="#E36D64" fill-opacity="0.59"/>
<path d="M156.304 74.9052L148.426 51.1146C148.089 50.1077 147.404 49.2858 146.518 48.8263C145.632 48.3668 144.616 48.3064 143.69 48.6583V48.6583C143.21 48.8403 142.77 49.1271 142.396 49.5012C142.021 49.8753 141.72 50.3288 141.511 50.8342C141.302 51.3395 141.19 51.8861 141.18 52.4405C141.171 52.9949 141.265 53.5457 141.457 54.0591L150.334 78.4975L155.155 93.5958C154.659 94.0868 154.313 94.7329 154.164 95.4464C154.015 96.1599 154.071 96.9061 154.324 97.5837C154.577 98.2614 155.014 98.8375 155.577 99.2339C156.14 99.6302 156.801 99.8276 157.47 99.7992C158.139 99.7708 158.784 99.518 159.316 99.0751C159.849 98.6322 160.245 98.0207 160.449 97.3237C160.653 96.6267 160.655 95.878 160.456 95.1793C160.258 94.4805 159.867 93.8657 159.337 93.4182L156.304 74.9052Z" fill="#FFB6B6"/>
<path d="M144.447 40.5194L150.835 53.0138C150.835 53.0138 136.113 58.5232 136.077 57.6059C136.042 56.6886 136.809 43.9598 136.809 43.9598L144.447 40.5194Z" fill="#E36D64" fill-opacity="0.8"/>
</g>
<path d="M300 211.441C300 211.499 299.988 211.556 299.965 211.61C299.941 211.663 299.906 211.712 299.863 211.753C299.819 211.794 299.767 211.827 299.71 211.849C299.653 211.871 299.591 211.882 299.529 211.882H0.470561C0.345761 211.882 0.226076 211.835 0.137829 211.753C0.0495821 211.67 0 211.558 0 211.441C0 211.324 0.0495821 211.212 0.137829 211.129C0.226076 211.046 0.345761 211 0.470561 211H299.529C299.591 211 299.653 211.011 299.71 211.033C299.767 211.055 299.819 211.088 299.863 211.129C299.906 211.17 299.941 211.218 299.965 211.272C299.988 211.326 300 211.383 300 211.441Z" fill="#CCCCCC"/>
<defs>
<clipPath id="clip0_533_64">
<rect width="233" height="212" fill="white" transform="translate(1)"/>
</clipPath>
</defs>
</svg>
