<svg width="233" height="212" viewBox="0 0 233 212" fill="none" xmlns="http://www.w3.org/2000/svg">
<g clip-path="url(#clip0_207_1573)">
<path d="M104.732 202.088L100.656 202.05L98.8516 184.466L104.867 184.521L104.732 202.088Z" fill="#FFB6B6"/>
<path d="M91.6758 209.172C91.6722 209.7 91.8604 210.208 92.1991 210.585C92.5378 210.962 92.9994 211.176 93.4826 211.181L101.587 211.255L103.005 208.112L103.526 211.271L106.584 211.302L105.812 200.034L104.748 199.957L100.409 199.63L99.009 199.527L98.9844 202.715L92.4744 207.541C92.2305 207.722 92.0305 207.965 91.8914 208.249C91.7523 208.533 91.6783 208.85 91.6758 209.172Z" fill="#2F2E41"/>
<path d="M146.088 202.088L142.011 202.05L140.207 184.466L146.223 184.521L146.088 202.088Z" fill="#FFB6B6"/>
<path d="M133.031 209.172C133.028 209.7 133.216 210.208 133.555 210.585C133.893 210.962 134.355 211.176 134.838 211.181L142.942 211.255L144.361 208.112L144.882 211.271L147.94 211.302L147.168 200.034L146.104 199.957L141.764 199.63L140.364 199.527L140.34 202.715L133.83 207.541C133.586 207.722 133.386 207.965 133.247 208.249C133.108 208.533 133.034 208.85 133.031 209.172Z" fill="#2F2E41"/>
<path d="M99.703 61.2668L118.048 45.8358C118.823 45.1795 119.332 44.2163 119.463 43.1541C119.595 42.0918 119.339 41.0157 118.75 40.1578C118.446 39.7141 118.062 39.3427 117.623 39.0663C117.183 38.7899 116.696 38.6144 116.192 38.5503C115.688 38.4862 115.177 38.535 114.691 38.6937C114.205 38.8523 113.754 39.1176 113.364 39.4732L94.758 56.1407L83.0615 65.7477C82.4827 65.3799 81.8143 65.2157 81.1472 65.2775C80.48 65.3394 79.8465 65.6242 79.3326 66.0933C78.8187 66.5623 78.4494 67.193 78.2749 67.8994C78.1003 68.6059 78.129 69.354 78.357 70.042C78.5849 70.7301 79.0012 71.3247 79.5491 71.7452C80.0971 72.1657 80.7502 72.3916 81.4197 72.3923C82.0892 72.3929 82.7427 72.1683 83.2914 71.7489C83.84 71.3295 84.2573 70.7357 84.4864 70.0481L99.703 61.2668Z" fill="#FFB6B6"/>
<path d="M114.654 64.8141L113.846 84.5532L141.31 88.1855C139.149 80.2539 135.605 69.2374 137.229 63.7175L114.654 64.8141Z" fill="#A0616A"/>
<path d="M130.267 28.6271H121.807L118.174 35.4222L116.443 35.3177C113.069 36.738 111.724 38.2079 109.862 42.1242L103.318 48.13L108.362 54.7446C111.845 54.1208 113.101 51.1655 111.995 45.7377C111.995 45.7377 108.18 53.004 113.675 56.5788C113.675 56.5788 112.695 63.3141 113.675 63.2417C114.655 63.1693 116.913 61.7985 114.655 63.1693C112.398 64.54 112.785 64.5992 112.858 65.0433C114.077 72.3838 115.086 77.896 115.086 77.896L138.958 80.4684C138.958 80.4684 137.582 64.6894 137.657 63.7922C137.732 62.8951 137.23 65.0884 137.732 62.8951C138.233 60.7019 138.986 61.5244 138.233 60.7019C137.481 59.8794 143.406 59.1711 141.094 55.2188L148.827 53.0139L144.504 41.7853C144.504 37.9941 138.933 34.9206 135.464 34.9206H135.02L130.267 28.6271Z" fill="#E36D64" fill-opacity="0.8"/>
<path d="M139.269 77.4868C129.93 80.998 121.522 80.2271 114.413 73.4862C114.413 73.4862 112.412 81.5708 110.386 80.4683C108.361 79.3659 109.362 82.4508 108.806 83.5818C108.215 84.7826 108.901 86.8082 106.95 87.4969C104.999 88.1855 105.732 90.2094 105.1 91.6989C100.68 102.122 95.6324 116.877 92.2223 135.591C88.7183 154.821 97.2656 187.038 97.2656 187.038L105.335 186.303L107.352 144.41L116.579 126.703C116.579 126.703 121.112 123.818 118.267 122.355C115.421 120.891 117.328 119.078 119.4 119.434C121.473 119.789 123.827 108.03 123.827 108.03C120.871 116.148 139.293 187.773 139.293 187.773L147.026 187.038L142.655 87.0831L139.269 77.4868Z" fill="#2F2E41"/>
<path d="M135.287 11.5677C136.204 14.0642 138.792 18.9735 139.142 21.6516L138.984 21.482C138.683 22.0438 138.342 22.5782 137.962 23.0798C137.282 22.2988 136.46 21.6812 135.549 21.2665C136.046 22.3818 136.334 23.5946 136.396 24.8335C134.712 26.4366 130.41 25.4694 128.261 26.3238C124.803 27.6953 121.131 28.1835 117.505 28.589C116.218 28.7338 114.778 28.8217 113.876 27.9906C112.974 27.1594 113.511 25.6203 113.026 24.4562C109.57 16.1641 112.76 13.1724 115.469 9.41247C116.066 8.58504 116.063 7.35027 116.789 6.56081C117.795 5.46652 119.339 5.12994 120.762 4.86032C120.392 4.8816 120.024 4.79854 119.692 4.61911C119.36 4.43969 119.076 4.16996 118.867 3.83588C118.684 3.49929 118.59 3.11396 118.594 2.72241C118.599 2.33086 118.702 1.94828 118.893 1.61688C119.402 0.694812 120.46 0.158615 121.48 0.0246642C122.485 -0.0499302 123.494 0.0449226 124.473 0.305895C125.107 0.397026 125.721 0.611485 126.286 0.939125C126.552 1.09452 126.769 1.33512 126.907 1.62876C127.045 1.9224 127.097 2.25509 127.058 2.58234C126.973 2.88455 126.826 3.16188 126.63 3.39366C126.433 3.62543 126.191 3.80567 125.922 3.92092C125.511 4.11071 125.079 4.23996 124.637 4.30528C126.667 4.0174 128.728 4.41183 130.548 5.43609C132.828 6.76558 134.367 9.07267 135.287 11.5677Z" fill="#2F2E41"/>
<path d="M122.94 25.5635C127.442 25.5635 131.092 21.5747 131.092 16.6543C131.092 11.7338 127.442 7.745 122.94 7.745C118.439 7.745 114.789 11.7338 114.789 16.6543C114.789 21.5747 118.439 25.5635 122.94 25.5635Z" fill="#FFB6B6"/>
<path d="M130.783 11.8773C130.311 13.4385 128.96 13.9416 127.712 14.2553C127.318 14.3556 126.922 14.449 126.522 14.5322C126.375 14.3307 126.218 14.1332 126.054 13.9465C125.374 13.1655 124.552 12.548 123.641 12.1332C124.035 13.0142 124.297 13.9586 124.416 14.9304C123.662 15.0501 122.903 15.1479 122.14 15.2238C121.494 15.374 120.821 15.2474 120.258 14.8701C119.695 14.4928 119.287 13.8937 119.117 13.1966C118.422 14.4382 117.601 15.6074 116.478 16.1006C115.836 16.3528 115.136 16.3736 114.482 16.1598C113.829 15.946 113.255 15.5089 112.844 14.9125C112.172 14.0156 111.797 12.8106 111.528 11.6476C111.209 10.2651 111.032 8.67246 111.658 7.79528C112.159 7.08536 113.024 7.07262 113.822 7.1356C115.583 7.28328 117.326 7.6286 119.023 8.16613L119.166 8.5191C118.875 6.60455 119.507 4.76249 120.677 4.10738C121.467 3.66937 122.416 3.74282 123.339 3.83167C124.524 3.88947 125.695 4.137 126.815 4.56633C128.099 5.10626 129.199 6.06668 129.965 7.31621C130.784 8.67534 131.191 10.529 130.783 11.8773Z" fill="#2F2E41"/>
<path d="M119.163 3.5502C119.244 3.52425 119.035 3.55758 119.107 3.5597C119.072 3.55742 119.036 3.55196 119.001 3.54337C118.995 3.54207 118.914 3.51376 118.968 3.53455C118.846 3.49499 118.738 3.41796 118.657 3.31277C118.465 3.05397 118.315 2.76176 118.212 2.44841C118.083 2.03433 117.874 1.65486 117.601 1.33493C117.524 1.24981 117.429 1.18587 117.325 1.14831C117.22 1.11074 117.109 1.10061 117 1.11873C116.892 1.13686 116.789 1.18273 116.699 1.25262C116.61 1.32252 116.537 1.41446 116.486 1.52099C116.327 1.90481 116.472 2.37773 116.586 2.7547C116.702 3.14638 116.876 3.5149 117.101 3.84605C117.476 4.38756 117.988 4.79791 118.573 5.0271C119.251 5.29607 119.99 5.31915 120.68 5.09291C120.772 5.05155 120.85 4.98207 120.906 4.89296C120.961 4.80384 120.992 4.69893 120.994 4.59101C120.996 4.48308 120.97 4.3768 120.918 4.28511C120.866 4.19342 120.79 4.12028 120.701 4.07461L119.549 3.55939C119.488 3.53023 119.423 3.51441 119.357 3.51284C119.291 3.51126 119.225 3.52395 119.163 3.55019C119.101 3.57642 119.045 3.61569 118.997 3.66575C118.949 3.71581 118.911 3.77568 118.884 3.84194C118.858 3.90819 118.843 3.97955 118.842 4.05192C118.84 4.12429 118.852 4.19626 118.876 4.26373C118.9 4.3312 118.936 4.39284 118.982 4.44513C119.027 4.49742 119.082 4.53934 119.143 4.56849L120.294 5.0837L120.315 4.06541C120.171 4.11075 120.023 4.13838 119.874 4.14779C119.715 4.16523 119.554 4.15782 119.396 4.12578C119.246 4.10418 119.097 4.0647 118.955 4.00803C118.863 3.97149 118.773 3.9299 118.686 3.88341C118.654 3.8665 118.622 3.84895 118.591 3.83076C118.593 3.83207 118.459 3.74679 118.518 3.78686C118.369 3.68283 118.229 3.56385 118.101 3.43146C118.055 3.38452 118.013 3.33359 117.975 3.27919C117.91 3.19109 117.849 3.09888 117.793 3.00303C117.68 2.80006 117.59 2.58243 117.526 2.35516C117.496 2.25965 117.472 2.16253 117.452 2.06421C117.446 2.01024 117.437 1.95674 117.425 1.9041C117.382 1.77867 117.433 1.97734 117.384 2.03169L117.172 2.20266C117.132 2.21564 117.09 2.21866 117.049 2.21147C117.007 2.20428 116.968 2.18708 116.934 2.16114C116.909 2.12246 116.915 2.12888 116.951 2.18039C116.993 2.24102 117.031 2.3045 117.066 2.37045C117.142 2.52572 117.211 2.68511 117.272 2.84801C117.399 3.19445 117.559 3.52512 117.75 3.83438C117.937 4.14718 118.21 4.38744 118.529 4.52092C118.849 4.65439 119.198 4.67426 119.529 4.5777C119.653 4.52376 119.752 4.41872 119.806 4.28523C119.86 4.15174 119.863 4.00051 119.816 3.86417C119.765 3.72981 119.669 3.62207 119.547 3.56354C119.426 3.50501 119.288 3.50023 119.163 3.5502Z" fill="#2F2E41"/>
<path d="M106.45 100.347C119.761 100.347 130.551 88.5529 130.551 74.0041C130.551 59.4553 119.761 47.6611 106.45 47.6611C93.1384 47.6611 82.3477 59.4553 82.3477 74.0041C82.3477 88.5529 93.1384 100.347 106.45 100.347Z" fill="white"/>
<path d="M106.45 100.715C101.616 100.715 96.8916 99.1481 92.8728 96.2132C88.854 93.2782 85.7217 89.1066 83.872 84.2259C82.0223 79.3452 81.5384 73.9746 82.4813 68.7933C83.4242 63.612 85.7517 58.8526 89.1694 55.1171C92.5871 51.3816 96.9416 48.8376 101.682 47.807C106.423 46.7763 111.336 47.3052 115.802 49.3269C120.267 51.3485 124.084 54.772 126.769 59.1645C129.455 63.557 130.888 68.7212 130.888 74.004C130.881 81.0857 128.304 87.8749 123.722 92.8824C119.141 97.8899 112.929 100.707 106.45 100.715ZM106.45 48.0287C101.749 48.0287 97.1546 49.5521 93.2463 52.4064C89.3381 55.2606 86.292 59.3174 84.4932 64.0638C82.6944 68.8103 82.2238 74.0331 83.1408 79.0718C84.0578 84.1106 86.3213 88.739 89.645 92.3717C92.9687 96.0045 97.2034 98.4784 101.814 99.4806C106.424 100.483 111.202 99.9684 115.545 98.0024C119.887 96.0363 123.599 92.707 126.21 88.4353C128.822 84.1636 130.216 79.1415 130.216 74.004C130.208 67.1173 127.702 60.5149 123.247 55.6452C118.791 50.7756 112.751 48.0364 106.45 48.0287Z" fill="#3F3D56"/>
<path d="M103.162 87.7144C102.746 87.7144 102.336 87.6085 101.963 87.405C101.591 87.2015 101.267 86.906 101.018 86.542L94.4424 76.9595C94.2312 76.6517 94.0775 76.3014 93.9901 75.9286C93.9027 75.5558 93.8834 75.1679 93.9332 74.787C93.983 74.4061 94.101 74.0396 94.2803 73.7085C94.4597 73.3774 94.697 73.0881 94.9787 72.8572C95.2604 72.6264 95.5809 72.4584 95.9219 72.3629C96.263 72.2674 96.6179 72.2463 96.9664 72.3007C97.3149 72.3551 97.6503 72.4841 97.9532 72.6801C98.2561 72.8762 98.5208 73.1356 98.732 73.4434L103.034 79.712L114.083 61.5982C114.278 61.278 114.529 61.003 114.821 60.7889C115.114 60.5748 115.442 60.4257 115.787 60.3502C116.133 60.2748 116.488 60.2744 116.834 60.349C117.179 60.4237 117.508 60.572 117.8 60.7855C118.093 60.9989 118.345 61.2734 118.541 61.5931C118.737 61.9129 118.873 62.2717 118.942 62.649C119.011 63.0263 119.012 63.4149 118.943 63.7924C118.875 64.1699 118.739 64.529 118.544 64.8491L105.393 86.4095C105.155 86.7994 104.835 87.1213 104.46 87.3482C104.085 87.5751 103.666 87.7003 103.237 87.7135C103.212 87.7139 103.187 87.7144 103.162 87.7144Z" fill="#E36D64" fill-opacity="0.59"/>
<path d="M79.9023 211.563C79.9022 211.62 79.9124 211.677 79.9325 211.73C79.9525 211.783 79.982 211.832 80.0192 211.872C80.0564 211.913 80.1005 211.945 80.1492 211.967C80.1978 211.989 80.2499 212 80.3025 212H165.463C165.57 212 165.671 211.954 165.746 211.872C165.821 211.79 165.864 211.679 165.864 211.563C165.864 211.447 165.821 211.335 165.746 211.253C165.671 211.171 165.57 211.125 165.463 211.125H80.3025C80.2499 211.125 80.1978 211.136 80.1492 211.158C80.1005 211.18 80.0564 211.212 80.0192 211.253C79.982 211.294 79.9525 211.342 79.9325 211.395C79.9124 211.448 79.9022 211.505 79.9023 211.563Z" fill="#CCCCCC"/>
<path d="M155.304 74.9052L147.426 51.1146C147.089 50.1077 146.404 49.2858 145.518 48.8263C144.632 48.3668 143.616 48.3064 142.69 48.6583C142.21 48.8403 141.77 49.1271 141.396 49.5012C141.021 49.8753 140.72 50.3288 140.511 50.8342C140.302 51.3395 140.19 51.8861 140.18 52.4405C140.171 52.9949 140.265 53.5457 140.457 54.0591L149.334 78.4975L154.155 93.5958C153.659 94.0868 153.313 94.7329 153.164 95.4464C153.015 96.1599 153.071 96.9061 153.324 97.5837C153.577 98.2614 154.014 98.8375 154.577 99.2339C155.14 99.6302 155.801 99.8276 156.47 99.7992C157.139 99.7708 157.784 99.518 158.316 99.0751C158.849 98.6322 159.245 98.0207 159.449 97.3237C159.653 96.6267 159.655 95.878 159.456 95.1793C159.258 94.4805 158.867 93.8657 158.337 93.4182L155.304 74.9052Z" fill="#FFB6B6"/>
<path d="M143.447 40.5194L149.835 53.0138C149.835 53.0138 135.113 58.5232 135.077 57.6059C135.042 56.6886 135.809 43.9598 135.809 43.9598L143.447 40.5194Z" fill="#E36D64" fill-opacity="0.8"/>
</g>
<defs>
<clipPath id="clip0_207_1573">
<rect width="233" height="212" fill="white"/>
</clipPath>
</defs>
</svg>
