<svg width="300" height="228" viewBox="0 0 300 228" fill="none" xmlns="http://www.w3.org/2000/svg">
<g clip-path="url(#clip0_205_1406)">
<path d="M239.498 41.5307C237.939 57.6206 233.5 74.5865 226.537 90.9563C217.926 111.2 206.162 129.03 192.515 142.52L191.758 141.901C205.338 128.476 217.049 110.725 225.624 90.5648C233.373 72.3469 237.982 53.3883 238.959 35.7472L239.927 35.899C239.824 37.7621 239.681 39.6394 239.498 41.5307Z" fill="#F2F2F2"/>
<path d="M245.705 134.978C226.538 163.552 203.284 183.968 180.226 192.465L179.76 191.664C202.658 183.226 225.776 162.914 244.856 134.47L245.705 134.978Z" fill="#F2F2F2"/>
<path d="M239.033 61.5633C237.474 77.6532 233.035 94.6191 226.072 110.989C217.461 131.232 205.697 149.063 192.05 162.552L191.293 161.933C204.873 148.509 216.584 130.757 225.159 110.597C232.908 92.3795 237.518 73.4209 238.494 55.7798L239.462 55.9316C239.359 57.7947 239.216 59.672 239.033 61.5633Z" fill="#F2F2F2"/>
<path d="M23.8555 102.871H11.2794C11.0107 102.871 10.7454 102.815 10.5033 102.706C10.2612 102.596 10.0487 102.437 9.88168 102.24C9.71666 102.048 9.60025 101.823 9.54116 101.583C9.48207 101.342 9.48185 101.093 9.54051 100.852C10.7383 95.8998 10.663 90.7517 9.32097 85.832C9.23609 85.5081 9.25661 85.1677 9.37991 84.8548C9.5032 84.5419 9.72361 84.2708 10.0128 84.0763C16.4794 79.7182 21.5721 79.8446 25.1495 84.4528C25.3108 84.6628 25.4179 84.905 25.4625 85.1604C26.4183 90.545 26.4712 96.0364 25.6193 101.436C25.5601 101.835 25.3488 102.2 25.0245 102.463C24.7002 102.727 24.2849 102.872 23.8555 102.871Z" fill="#E6E6E6"/>
<path d="M19.9548 91.0697H15.6286C15.3893 91.0697 15.1599 90.9807 14.9907 90.8222C14.8216 90.6637 14.7266 90.4487 14.7266 90.2245C14.7266 90.0003 14.8216 89.7853 14.9907 89.6268C15.1599 89.4683 15.3893 89.3793 15.6286 89.3793H19.9548C20.1937 89.3797 20.4226 89.469 20.5914 89.6275C20.7601 89.7859 20.8549 90.0006 20.8549 90.2245C20.8549 90.4484 20.7601 90.6631 20.5914 90.8215C20.4226 90.98 20.1937 91.0693 19.9548 91.0697Z" fill="white"/>
<path d="M19.9548 94.034H15.6286C15.3893 94.034 15.1599 93.9449 14.9907 93.7864C14.8216 93.6279 14.7266 93.4129 14.7266 93.1887C14.7266 92.9646 14.8216 92.7496 14.9907 92.5911C15.1599 92.4326 15.3893 92.3435 15.6286 92.3435H19.9548C20.1937 92.344 20.4226 92.4332 20.5914 92.5917C20.7601 92.7502 20.8549 92.9649 20.8549 93.1887C20.8549 93.4126 20.7601 93.6273 20.5914 93.7858C20.4226 93.9442 20.1937 94.0335 19.9548 94.034Z" fill="white"/>
<path d="M19.9548 96.9983H15.6286C15.3893 96.9983 15.1599 96.9093 14.9907 96.7508C14.8216 96.5922 14.7266 96.3773 14.7266 96.1531C14.7266 95.9289 14.8216 95.7139 14.9907 95.5554C15.1599 95.3969 15.3893 95.3079 15.6286 95.3079H19.9548C20.1937 95.3083 20.4226 95.3976 20.5914 95.556C20.7601 95.7145 20.8549 95.9292 20.8549 96.1531C20.8549 96.377 20.7601 96.5917 20.5914 96.7501C20.4226 96.9086 20.1937 96.9978 19.9548 96.9983Z" fill="white"/>
<path d="M252.412 155.487H239.836C239.567 155.487 239.302 155.431 239.06 155.322C238.818 155.212 238.605 155.053 238.438 154.856C238.273 154.664 238.157 154.439 238.098 154.199C238.039 153.958 238.038 153.708 238.097 153.468C239.295 148.516 239.22 143.368 237.878 138.448C237.793 138.124 237.813 137.784 237.937 137.471C238.06 137.158 238.28 136.887 238.569 136.692C245.036 132.334 250.129 132.461 253.706 137.069C253.867 137.279 253.975 137.521 254.019 137.776C254.975 143.161 255.028 148.652 254.176 154.052C254.117 154.451 253.905 154.816 253.581 155.079C253.257 155.343 252.842 155.488 252.412 155.487Z" fill="#E6E6E6"/>
<path d="M248.513 143.686H244.187C243.948 143.685 243.719 143.596 243.551 143.438C243.382 143.279 243.287 143.064 243.287 142.84C243.287 142.617 243.382 142.402 243.551 142.243C243.719 142.085 243.948 141.996 244.187 141.995H248.513C248.753 141.995 248.982 142.084 249.151 142.243C249.32 142.401 249.415 142.616 249.415 142.84C249.415 143.065 249.32 143.28 249.151 143.438C248.982 143.597 248.753 143.686 248.513 143.686Z" fill="white"/>
<path d="M248.513 146.65H244.187C243.948 146.649 243.719 146.56 243.551 146.402C243.382 146.243 243.287 146.029 243.287 145.805C243.287 145.581 243.382 145.366 243.551 145.208C243.719 145.049 243.948 144.96 244.187 144.959H248.513C248.753 144.959 248.982 145.049 249.151 145.207C249.32 145.366 249.415 145.581 249.415 145.805C249.415 146.029 249.32 146.244 249.151 146.402C248.982 146.561 248.753 146.65 248.513 146.65Z" fill="white"/>
<path d="M248.513 149.614H244.187C243.948 149.614 243.719 149.525 243.551 149.366C243.382 149.208 243.287 148.993 243.287 148.769C243.287 148.545 243.382 148.33 243.551 148.172C243.719 148.014 243.948 147.924 244.187 147.924H248.513C248.753 147.924 248.982 148.013 249.151 148.171C249.32 148.33 249.415 148.545 249.415 148.769C249.415 148.993 249.32 149.208 249.151 149.367C248.982 149.525 248.753 149.614 248.513 149.614Z" fill="white"/>
<path d="M300 227.559C300 227.617 299.988 227.674 299.965 227.728C299.941 227.782 299.906 227.83 299.863 227.871C299.819 227.912 299.767 227.945 299.71 227.967C299.653 227.989 299.591 228 299.529 228H0.470561C0.345761 228 0.226076 227.954 0.137829 227.871C0.0495821 227.788 0 227.676 0 227.559C0 227.442 0.0495821 227.33 0.137829 227.247C0.226076 227.165 0.345761 227.118 0.470561 227.118H299.529C299.591 227.118 299.653 227.129 299.71 227.151C299.767 227.173 299.819 227.206 299.863 227.247C299.906 227.288 299.941 227.337 299.965 227.39C299.988 227.444 300 227.501 300 227.559Z" fill="#CCCCCC"/>
<path d="M78.8895 200.562L78.1051 190.339C72.9671 187.933 67.2799 186.737 61.5371 186.858C69.6164 192.71 68.9692 204.405 74.5646 212.41C76.3301 214.894 78.6695 216.973 81.4095 218.495C84.1494 220.017 87.2197 220.941 90.3927 221.199L97.1166 224.824C97.8857 220.061 97.5436 215.197 96.1139 210.569C94.6841 205.942 92.2006 201.659 88.8346 198.017C86.9246 195.992 84.7501 194.2 82.3622 192.683C80.8925 196.637 78.8895 200.562 78.8895 200.562Z" fill="#F2F2F2"/>
<path d="M221.11 202.044L221.894 191.821C227.032 189.415 232.719 188.22 238.462 188.34C230.383 194.192 231.03 205.888 225.435 213.892C223.669 216.376 221.33 218.456 218.59 219.977C215.85 221.499 212.78 222.423 209.607 222.682L202.883 226.306C202.114 221.543 202.456 216.679 203.885 212.052C205.315 207.424 207.799 203.141 211.165 199.5C213.075 197.474 215.249 195.682 217.637 194.166C219.107 198.12 221.11 202.044 221.11 202.044Z" fill="#F2F2F2"/>
<path d="M146.441 86.6838C150.59 86.6838 153.954 83.5319 153.954 79.6437C153.954 75.7555 150.59 72.6035 146.441 72.6035C142.291 72.6035 138.928 75.7555 138.928 79.6437C138.928 83.5319 142.291 86.6838 146.441 86.6838Z" fill="#E36D64"/>
<path d="M150.297 76.7095C150.184 76.6085 150.034 76.5521 149.878 76.5521C149.722 76.5521 149.572 76.6085 149.459 76.7095C147.864 77.9009 146.432 79.2714 145.195 80.7902C144.891 80.2394 144.588 79.6886 144.284 79.1379C143.933 78.5021 142.909 79.0637 143.259 79.6989C143.704 80.5045 144.148 81.3101 144.592 82.1157C144.646 82.1979 144.721 82.2659 144.811 82.313C144.901 82.3602 145.002 82.3849 145.105 82.3849C145.207 82.3849 145.308 82.3602 145.398 82.313C145.488 82.2659 145.563 82.1979 145.617 82.1157C146.935 80.3755 148.511 78.8199 150.297 77.4955C150.408 77.3909 150.47 77.2497 150.47 77.1025C150.47 76.9554 150.408 76.8142 150.297 76.7095Z" fill="white"/>
<path d="M112.824 99.6071L101.494 82.9346L114.614 76.3508L118.057 89.0712L142.319 101.356C143.277 101.033 144.314 100.978 145.305 101.198C146.295 101.418 147.196 101.903 147.897 102.595C148.599 103.286 149.07 104.154 149.254 105.092C149.439 106.03 149.327 106.998 148.935 107.878C148.542 108.758 147.884 109.512 147.042 110.048C146.2 110.584 145.209 110.879 144.191 110.896C143.174 110.914 142.172 110.653 141.31 110.147C140.447 109.64 139.76 108.91 139.333 108.044L112.824 99.6071Z" fill="#A0616A"/>
<path d="M93.2175 62.9376C89.6576 67.8352 102.308 85.6376 102.308 85.6376C102.925 84.3928 108.816 98.3714 109.803 97.5456C112.607 95.1988 116.997 88.6616 119.437 88.3701C120.833 88.2035 116.201 78.9295 116.201 78.9295C116.201 78.9295 114.084 73.4532 111.211 66.4578C110.438 64.4659 109.14 62.6897 107.437 61.2945C105.735 59.8993 103.683 58.9304 101.473 58.4781C101.473 58.4781 96.7773 58.04 93.2175 62.9376Z" fill="#3F3D56"/>
<path d="M93.3899 222.503L98.7705 222.503L101.33 203.055L93.3887 203.055L93.3899 222.503Z" fill="#A0616A"/>
<path d="M92.0176 220.857L93.5321 220.857L99.4449 218.604L102.614 220.856H102.615C104.405 220.857 106.123 221.523 107.389 222.71C108.656 223.897 109.367 225.506 109.367 227.184V227.39L92.0179 227.39L92.0176 220.857Z" fill="#2F2E41"/>
<path d="M118.388 222.503L123.768 222.503L126.328 203.055L118.387 203.055L118.388 222.503Z" fill="#A0616A"/>
<path d="M117.016 220.857L118.53 220.857L124.443 218.604L127.612 220.856H127.613C129.403 220.857 131.121 221.523 132.387 222.71C133.654 223.897 134.365 225.506 134.365 227.184V227.39L117.016 227.39L117.016 220.857Z" fill="#2F2E41"/>
<path d="M120.716 116.182L85.7179 117.002C79.071 120.385 78.97 127.707 81.1479 136.4C81.1479 136.4 80.4127 141.567 81.8832 142.945C83.3536 144.323 84.0888 144.323 83.3536 146.734C82.6184 149.146 86.5029 153.084 86.0311 153.526C85.5593 153.968 84.4565 156.379 84.4565 156.379L88.1326 176.014C88.1326 176.014 90.7059 210.117 91.4411 210.806C92.1763 211.495 92.9115 210.806 92.1763 212.528C91.4411 214.25 90.7059 213.561 91.4411 214.25C92.0924 214.908 92.7059 215.598 93.2792 216.317H102.167C102.167 216.317 102.837 212.872 102.837 212.528C102.837 212.184 103.572 210.117 103.572 209.772C103.572 209.428 102.922 208.819 102.922 208.819C102.698 208.119 102.546 207.4 102.469 206.672C102.469 205.983 100.264 179.459 100.264 179.459L104.675 145.012L115.336 178.77C115.336 178.77 115.336 208.394 116.071 209.083C116.806 209.772 116.806 209.428 116.439 210.806C116.071 212.184 114.601 211.839 115.704 212.873C116.806 213.906 117.174 212.184 116.806 213.906L116.439 215.628L127.467 215.776C127.467 215.776 128.938 212.873 128.202 211.839C127.467 210.806 127.511 211.088 128.408 209.397C129.305 207.705 129.673 207.361 129.305 207.017C128.938 206.672 128.938 204.84 128.938 204.84L127.1 171.881C127.1 171.881 126.732 137.089 126.732 136.056C126.704 135.524 126.809 134.993 127.037 134.506V133.103L125.629 128.133L120.716 116.182Z" fill="#2F2E41"/>
<path d="M99.6925 47.9898C105.698 47.9898 110.567 43.4278 110.567 37.8002C110.567 32.1726 105.698 27.6106 99.6925 27.6106C93.6869 27.6106 88.8184 32.1726 88.8184 37.8002C88.8184 43.4278 93.6869 47.9898 99.6925 47.9898Z" fill="#A0616A"/>
<path d="M105.13 54.7244C107.472 56.0295 108.874 58.4274 109.678 60.8674C111.167 65.3849 112.064 70.0555 112.348 74.7762L113.197 88.9089L123.721 119.001C114.601 126.233 80.3188 120.645 80.3188 120.645C80.3188 120.645 79.2665 120.316 80.3188 119.33C81.3712 118.344 82.3956 119.218 81.3433 118.232C80.291 117.245 81.0164 118.344 81.3672 117.358C81.718 116.372 81.3672 117.029 81.0164 116.701C80.6657 116.372 83.732 113.414 83.732 113.414L80.9257 96.1402L77.418 61.2983C81.6273 56.3679 90.0929 53.4614 90.0929 53.4614L92.2803 49.772L103.217 50.5918L105.13 54.7244Z" fill="#3F3D56"/>
<path d="M108.656 32.3866C109.502 32.9773 110.128 33.8015 110.447 34.7432C110.569 33.2043 110.577 31.6593 110.47 30.1194C110.342 29.0373 109.529 28.7939 108.587 28.5119C107.737 28.257 106.776 27.9692 106.517 26.9187C103.099 23.8028 97.1485 23.9599 93.0762 25.0468C90.8354 25.6449 89.546 26.4133 89.4306 26.8635L89.4067 26.9562L89.3157 26.9988C87.5885 27.8081 87.2522 30.3636 87.2744 32.3648C87.3165 36.1353 88.7059 40.4177 89.4885 40.7656C89.53 40.784 89.5404 40.7768 89.5584 40.7628C90.7369 39.8802 92.1747 40.8298 92.8066 41.346C93.1793 39.0026 94.3793 36.8438 96.2149 35.2144C98.0505 33.585 100.416 32.579 102.933 32.357C103.755 32.2826 104.571 32.1544 105.374 31.9735C105.781 31.8748 106.2 31.8233 106.621 31.8202C107.345 31.8099 108.056 32.0076 108.656 32.3866Z" fill="#2F2E41"/>
<path d="M176.162 124.301L197.079 104.397L202.591 88.4773L193.722 85.116C189.329 89.2685 184.806 101.981 184.806 101.981L170.529 119.936C170.415 119.976 170.301 120.018 170.189 120.068C169.532 120.358 168.966 120.803 168.545 121.359C168.125 121.915 167.865 122.563 167.79 123.24C167.715 123.918 167.828 124.602 168.118 125.227C168.407 125.851 168.864 126.396 169.444 126.806C170.024 127.217 170.707 127.481 171.427 127.573C172.147 127.664 172.881 127.579 173.556 127.328C174.231 127.076 174.826 126.665 175.283 126.135C175.739 125.605 176.042 124.973 176.162 124.301Z" fill="#FFB8B8"/>
<path d="M191.303 86.9371L202.518 89.9773L202.56 89.9697C206.683 89.2196 209.944 82.7997 211.954 77.5462C212.615 75.8134 212.549 73.91 211.77 72.2209C210.991 70.5317 209.556 69.1828 207.756 68.4468C206.424 67.9122 204.96 67.7374 203.528 67.942C202.095 68.1467 200.753 68.7226 199.652 69.6048L194.06 74.1169L191.303 86.9371Z" fill="#E36D64"/>
<path d="M181.708 221.912L175.676 221.911L172.807 200.111L181.709 200.111L181.708 221.912Z" fill="#FFB8B8"/>
<path d="M183.246 220.066L181.548 220.066L174.92 217.54L171.367 220.066H171.367C169.359 220.066 167.434 220.813 166.014 222.143C164.595 223.474 163.797 225.278 163.797 227.159V227.39L183.246 227.39L183.246 220.066Z" fill="#2F2E41"/>
<path d="M208.471 221.912L202.44 221.911L199.57 200.111L208.473 200.111L208.471 221.912Z" fill="#FFB8B8"/>
<path d="M210.01 220.066L208.312 220.066L201.684 217.54L198.131 220.066H198.131C196.123 220.066 194.198 220.813 192.778 222.143C191.358 223.474 190.561 225.278 190.561 227.159V227.39L210.009 227.39L210.01 220.066Z" fill="#2F2E41"/>
<path d="M217.668 128.009C217.668 128.009 218.373 135.928 216.612 143.518C214.851 151.108 214.851 172.483 214.851 172.483L210.977 214.135L199.356 213.145L196.187 143.518L184.918 166.947L185.974 170.247L184.567 171.072C184.567 171.072 185.622 177.507 184.918 177.507C184.213 177.507 182.453 178.497 182.453 178.497L183.861 212.485L171.888 212.155L167.662 164.307L172.24 136.918L172.592 131.638L174.177 131.7L174.984 129.494L176.466 125.699L217.668 128.009Z" fill="#2F2E41"/>
<path d="M218.278 129.672L218.341 129.59C221.693 125.192 216.651 114.625 215.891 113.093L219.094 112.119L218.372 106.375L218.031 103.814L220.478 101.521L220.485 101.463L221.894 89.9138L223.942 82.2427C224.714 79.3428 224.648 76.3026 223.752 73.4344C222.855 70.5661 221.16 67.9731 218.841 65.9215L214.107 61.7388L208.353 53.7616H199.075L195.894 59.3923C192.809 60.0603 190.073 61.721 188.161 64.0851C186.249 66.4493 185.283 69.367 185.431 72.3301L186.151 87.0978L183.329 105.485L183.327 108.812L180.151 112.12L180.844 115.37L178.427 116.341L177.359 121.008C176.918 121.555 174.002 125.198 174.002 126.194C174.002 126.343 174.12 126.488 174.373 126.648C176.36 127.909 187.342 130.479 192.203 128.657C197.381 126.717 217.964 129.627 218.171 129.657L218.278 129.672Z" fill="#E36D64"/>
<path d="M202.514 51.1864C209.301 51.1864 214.802 46.0314 214.802 39.6723C214.802 33.3132 209.301 28.1581 202.514 28.1581C195.728 28.1581 190.227 33.3132 190.227 39.6723C190.227 46.0314 195.728 51.1864 202.514 51.1864Z" fill="#FFB8B8"/>
<path d="M201.337 51.3729C203.24 51.3547 205.138 51.1842 207.01 50.8633C208.863 50.4632 212.952 47.5004 214.067 45.7501C214.895 44.4497 215.392 42.4382 215.663 40.9798C216.029 39.0498 215.958 37.0692 215.456 35.1663C214.953 33.2635 214.029 31.4808 212.745 29.9336C212.25 29.2855 211.577 28.7748 210.797 28.4556C210.728 28.4323 210.657 28.4118 210.586 28.3946C209.456 28.145 208.431 27.5847 207.644 26.7855C207.491 26.6237 207.326 26.4725 207.149 26.3329C206.266 25.67 205.227 25.2125 204.119 24.9977C202.328 24.5947 199.767 25.0997 196.506 26.4999C194.867 27.2033 193.049 27.0071 191.647 26.7575C191.569 26.7452 191.488 26.7525 191.414 26.7785C191.339 26.8045 191.273 26.8484 191.222 26.9057C190.643 27.4417 189.869 27.7527 189.056 27.776C188.559 27.8085 188.054 28.4675 187.445 29.3257C187.307 29.5205 187.146 29.7478 187.029 29.8866L187.006 29.626L186.732 29.9239C186.302 30.3922 186.005 30.9548 185.869 31.5595C185.733 32.1642 185.763 32.7913 185.955 33.3823C186.148 33.9734 186.497 34.5092 186.97 34.9398C187.443 35.3705 188.024 35.682 188.66 35.8453C189.165 35.9582 189.68 36.0224 190.199 36.0371C190.513 36.0559 190.838 36.0754 191.15 36.1185C192.153 36.2858 193.093 36.6939 193.877 37.3031C194.662 37.9123 195.264 38.7016 195.626 39.5941C195.711 39.8004 195.846 39.9855 196.02 40.1351C196.194 40.2848 196.402 40.395 196.629 40.4573C196.855 40.5196 197.094 40.5323 197.327 40.4944C197.559 40.4564 197.779 40.3689 197.97 40.2386C198.288 39.9945 198.663 39.8259 199.065 39.7472C199.467 39.6685 199.883 39.6821 200.278 39.7868C200.622 39.9551 200.893 40.229 201.047 40.5625C201.233 40.9337 201.532 41.2446 201.908 41.4556C203.187 42.035 203.348 44.735 202.957 46.9985C202.58 49.1803 201.759 50.7719 200.961 50.8689C200.347 50.9435 200.278 50.9862 200.236 51.0893L200.199 51.1817L200.27 51.2655C200.613 51.3728 200.977 51.4094 201.337 51.3729Z" fill="#2F2E41"/>
<path d="M191.144 88.1684L185.237 81.1165C179.221 82.6689 168.546 91.5851 168.546 91.5851L146.623 100.5C145.891 100.385 145.14 100.452 144.445 100.695C143.75 100.939 143.135 101.349 142.663 101.886C142.192 102.422 141.879 103.066 141.757 103.752C141.635 104.438 141.708 105.141 141.968 105.792C142.229 106.443 142.667 107.019 143.241 107.46C143.814 107.902 144.501 108.194 145.233 108.308C145.965 108.421 146.716 108.352 147.41 108.107C148.105 107.862 148.718 107.45 149.189 106.913L177.908 99.405L191.144 88.1684Z" fill="#FFB8B8"/>
<path d="M189.729 89.7807L199.048 80.0458L199.566 73.1479C199.662 71.7934 199.352 70.4407 198.671 69.2425C197.99 68.0444 196.965 67.0486 195.711 66.3678C194.006 65.4556 191.994 65.1843 190.083 65.6088C188.172 66.0333 186.505 67.1218 185.417 68.6544C182.124 73.3049 178.582 79.5925 180.405 83.1375L180.423 83.1734L189.729 89.7807Z" fill="#E36D64"/>
<path d="M103.831 126.371L79.6093 114.747C77.8864 113.92 77.3157 111.727 78.3371 109.858L94.1302 80.9623C95.1517 79.0935 97.3843 78.2457 99.1072 79.0725L123.329 90.6967C125.052 91.5235 125.623 93.7166 124.601 95.5855L108.808 124.481C107.787 126.35 105.554 127.198 103.831 126.371Z" fill="#E6E6E6"/>
<path d="M99.6933 121.027L83.2367 113.13C81.6231 112.355 81.0885 110.301 82.0452 108.551L95.1658 84.545C96.1224 82.7947 98.2135 82.0009 99.8271 82.7752L119.703 92.3139C121.317 93.0883 121.851 95.1421 120.895 96.8924L113.767 109.934C109.506 117.73 106.881 124.477 99.6933 121.027Z" fill="white"/>
<path d="M107.83 107.918L93.2537 100.922C93.0755 100.803 92.9489 100.628 92.8971 100.429C92.8452 100.23 92.8716 100.02 92.9713 99.8373C93.0711 99.6548 93.2376 99.512 93.4404 99.435C93.6432 99.358 93.8688 99.3519 94.076 99.4179L108.652 106.413C108.83 106.532 108.957 106.707 109.009 106.906C109.061 107.106 109.034 107.316 108.934 107.498C108.835 107.681 108.668 107.823 108.465 107.9C108.263 107.977 108.037 107.984 107.83 107.918Z" fill="#E36D64"/>
<path d="M94.9551 105.491L91.6287 103.895C91.4505 103.776 91.3239 103.601 91.272 103.402C91.2202 103.202 91.2466 102.992 91.3463 102.81C91.4461 102.627 91.6126 102.485 91.8154 102.408C92.0182 102.33 92.2439 102.324 92.4511 102.39L95.7775 103.987C95.9557 104.106 96.0823 104.281 96.1341 104.48C96.186 104.679 96.1596 104.889 96.0598 105.072C95.9601 105.254 95.7936 105.397 95.5908 105.474C95.3879 105.551 95.1623 105.557 94.9551 105.491Z" fill="#E36D64"/>
<path d="M99.2216 111.291L90.0037 106.868C89.8255 106.749 89.6989 106.573 89.647 106.374C89.5952 106.175 89.6216 105.965 89.7213 105.782C89.8211 105.6 89.9876 105.457 90.1904 105.38C90.3932 105.303 90.6188 105.297 90.8261 105.363L100.044 109.787C100.222 109.906 100.349 110.081 100.401 110.28C100.452 110.479 100.426 110.689 100.326 110.872C100.227 111.054 100.06 111.197 99.8572 111.274C99.6544 111.351 99.4288 111.357 99.2216 111.291V111.291Z" fill="#E36D64"/>
<path d="M113.597 97.3639L99.0213 90.3688C98.8431 90.2498 98.7165 90.0747 98.6646 89.8755C98.6128 89.6763 98.6391 89.4662 98.7389 89.2837C98.8387 89.1012 99.0051 88.9584 99.208 88.8814C99.4108 88.8044 99.6364 88.7983 99.8436 88.8643L114.42 95.8594C114.598 95.9784 114.725 96.1535 114.776 96.3527C114.828 96.5519 114.802 96.762 114.702 96.9445C114.602 97.127 114.436 97.2698 114.233 97.3468C114.03 97.4238 113.805 97.4299 113.597 97.3639Z" fill="#E36D64"/>
<path d="M100.723 94.9378L97.3963 93.3414C97.2181 93.2224 97.0915 93.0473 97.0396 92.8481C96.9878 92.6488 97.0142 92.4388 97.1139 92.2562C97.2137 92.0737 97.3802 91.9309 97.583 91.8539C97.7858 91.7769 98.0114 91.7708 98.2186 91.8368L101.545 93.4332C101.723 93.5522 101.85 93.7273 101.902 93.9265C101.954 94.1257 101.927 94.3358 101.827 94.5183C101.728 94.7008 101.561 94.8436 101.358 94.9206C101.156 94.9976 100.93 95.0037 100.723 94.9378Z" fill="#E36D64"/>
<path d="M104.989 100.738L95.7713 96.3139C95.5931 96.1949 95.4665 96.0198 95.4146 95.8206C95.3628 95.6214 95.3891 95.4113 95.4889 95.2288C95.5887 95.0463 95.7552 94.9035 95.958 94.8264C96.1608 94.7494 96.3864 94.7434 96.5936 94.8093L105.812 99.233C105.99 99.352 106.116 99.5271 106.168 99.7264C106.22 99.9256 106.194 100.136 106.094 100.318C105.994 100.501 105.828 100.644 105.625 100.721C105.422 100.798 105.196 100.804 104.989 100.738L104.989 100.738Z" fill="#E36D64"/>
<path d="M83.7591 101.214L78.2871 82.1256L92.9098 79.5317L92.1235 92.6342L111.336 111.172C112.354 111.133 113.361 111.372 114.235 111.86C115.11 112.349 115.814 113.065 116.262 113.921C116.71 114.778 116.882 115.738 116.757 116.685C116.633 117.632 116.217 118.524 115.56 119.253C114.904 119.982 114.035 120.517 113.06 120.791C112.085 121.066 111.046 121.068 110.07 120.799C109.093 120.53 108.221 120 107.56 119.274C106.9 118.549 106.478 117.659 106.348 116.713L83.7591 101.214Z" fill="#A0616A"/>
<path d="M76.7906 60.7229C71.8272 64.3946 78.1978 84.9327 78.1978 84.9327C79.1841 83.9184 80.3303 98.9092 81.5359 98.3988C84.9623 96.948 91.2426 91.9455 93.6637 92.3532C95.0483 92.5864 93.5977 82.4376 93.5977 82.4376C93.5977 82.4376 93.3309 76.6184 92.8294 69.1377C92.7295 67.0203 92.0595 64.9611 90.8818 63.1516C89.7041 61.3421 88.057 59.8413 86.0938 58.7888C86.0938 58.7888 81.7541 57.0511 76.7906 60.7229Z" fill="#3F3D56"/>
<path d="M159.38 143.584L146.162 137.735C145.879 137.611 145.63 137.428 145.434 137.201C145.237 136.973 145.098 136.707 145.027 136.422C144.955 136.143 144.952 135.853 145.017 135.573C145.082 135.293 145.215 135.03 145.404 134.805C149.232 130.22 151.861 124.857 153.08 119.148C153.172 118.711 153.423 118.318 153.79 118.034C154.157 117.751 154.618 117.596 155.094 117.596C161.835 117.617 166.873 119.924 170.068 124.45C170.236 124.686 170.348 124.953 170.395 125.233C170.442 125.513 170.423 125.799 170.34 126.072C168.49 132.046 165.675 137.72 161.993 142.896C161.72 143.288 161.304 143.573 160.824 143.699C160.343 143.826 159.83 143.785 159.38 143.584Z" fill="#E6E6E6"/>
<path d="M163.268 135.381L153.161 130.909C152.91 130.798 152.716 130.598 152.622 130.352C152.528 130.107 152.542 129.837 152.661 129.601C152.78 129.366 152.993 129.184 153.255 129.096C153.517 129.008 153.805 129.021 154.057 129.132L164.163 133.604C164.288 133.659 164.399 133.737 164.492 133.832C164.584 133.928 164.656 134.04 164.702 134.161C164.749 134.283 164.769 134.411 164.763 134.54C164.756 134.669 164.722 134.795 164.663 134.912C164.605 135.029 164.522 135.133 164.42 135.22C164.318 135.307 164.199 135.374 164.069 135.417C163.94 135.461 163.802 135.48 163.665 135.474C163.527 135.468 163.392 135.436 163.268 135.381H163.268Z" fill="white"/>
<path d="M164.838 132.265L154.732 127.793C154.48 127.682 154.286 127.482 154.192 127.237C154.099 126.991 154.113 126.721 154.231 126.486C154.35 126.25 154.564 126.068 154.825 125.98C155.087 125.892 155.375 125.906 155.627 126.017L165.733 130.489C165.985 130.6 166.179 130.8 166.273 131.046C166.366 131.291 166.352 131.561 166.234 131.797C166.115 132.032 165.901 132.214 165.639 132.302C165.378 132.39 165.089 132.377 164.838 132.265V132.265Z" fill="white"/>
<path d="M151.334 34.4654L150.393 34.5619C146.198 19.1164 138.068 8.41591 126.88 3.61705C112.657 -2.48314 95.0706 1.61325 77.359 15.1518C59.5574 28.7595 43.7983 50.2537 32.9851 75.6761L32.0723 75.2846C42.933 49.7512 58.773 28.1531 76.6743 14.4698C94.6654 0.717342 112.611 -3.40909 127.206 2.85083C138.715 7.7872 147.058 18.7194 151.334 34.4654Z" fill="#F2F2F2"/>
<path d="M47.5431 54.5811C45.0829 59.4376 42.7428 64.4689 40.5878 69.5352C28.187 98.6897 21.9027 128.464 22.4163 155.641L21.4471 155.544C20.933 128.266 27.2353 98.3892 39.675 69.1437C41.8362 64.0632 44.1829 59.0176 46.6502 54.1475L47.5431 54.5811Z" fill="#F2F2F2"/>
<path d="M47.0782 74.6137C44.618 79.4702 42.278 84.5015 40.123 89.5678C27.7221 118.722 21.4379 148.497 21.9514 175.674L20.9822 175.577C20.4682 148.299 26.7705 118.422 39.2102 89.1763C41.3713 84.0958 43.718 79.0502 46.1853 74.1801L47.0782 74.6137Z" fill="#F2F2F2"/>
<path d="M21.0295 81.8992C22.1009 80.3902 21.4668 78.2301 19.6131 77.0745C17.7595 75.9189 15.3883 76.2054 14.3169 77.7144C13.2455 79.2234 13.8796 81.3835 15.7333 82.5391C17.5869 83.6947 19.9581 83.4082 21.0295 81.8992Z" fill="#CCCCCC"/>
<path d="M249.168 136.393C250.24 134.884 249.605 132.724 247.752 131.569C245.898 130.413 243.527 130.7 242.456 132.209C241.384 133.718 242.018 135.878 243.872 137.033C245.726 138.189 248.097 137.902 249.168 136.393Z" fill="#CCCCCC"/>
</g>
<defs>
<clipPath id="clip0_205_1406">
<rect width="300" height="228" fill="white"/>
</clipPath>
</defs>
</svg>
