<svg width="300" height="219" viewBox="0 0 300 219" fill="none" xmlns="http://www.w3.org/2000/svg">
<g clip-path="url(#clip0_218_379)">
<path d="M239.498 39.8914C237.939 55.3461 233.5 71.6423 226.537 87.366C217.926 106.81 206.162 123.937 192.515 136.894L191.758 136.3C205.338 123.405 217.049 106.354 225.624 86.99C233.373 69.4911 237.982 51.281 238.959 34.3362L239.927 34.482C239.824 36.2716 239.681 38.0747 239.498 39.8914Z" fill="#F2F2F2"/>
<path d="M245.705 129.65C226.538 157.096 203.284 176.706 180.226 184.868L179.76 184.099C202.658 175.993 225.776 156.483 244.856 129.162L245.705 129.65Z" fill="#F2F2F2"/>
<path d="M239.033 59.1331C237.474 74.5879 233.035 90.884 226.072 106.608C217.461 126.052 205.697 143.179 192.05 156.136L191.293 155.541C204.873 142.647 216.584 125.596 225.159 106.232C232.908 88.7328 237.518 70.5227 238.494 53.5779L239.462 53.7237C239.359 55.5133 239.216 57.3164 239.033 59.1331Z" fill="#F2F2F2"/>
<path d="M23.8555 98.8102H11.2794C11.0107 98.8107 10.7454 98.7564 10.5033 98.6515C10.2612 98.5465 10.0487 98.3936 9.88168 98.2042C9.71666 98.0196 9.60025 97.8038 9.54116 97.5729C9.48207 97.342 9.48185 97.1021 9.54051 96.8711C10.7383 92.1143 10.663 87.1694 9.32097 82.4439C9.23609 82.1328 9.25661 81.8059 9.37991 81.5054C9.5032 81.2048 9.72361 80.9444 10.0128 80.7575C16.4794 76.5714 21.5721 76.6929 25.1495 81.1192C25.3108 81.3209 25.4179 81.5536 25.4625 81.7988C26.4183 86.9709 26.4712 92.2455 25.6193 97.4322C25.5601 97.815 25.3488 98.1656 25.0245 98.4189C24.7002 98.6722 24.2849 98.8112 23.8555 98.8102V98.8102Z" fill="#E6E6E6"/>
<path d="M19.9548 87.4749H15.6286C15.3893 87.4749 15.1599 87.3894 14.9907 87.2371C14.8216 87.0849 14.7266 86.8784 14.7266 86.6631C14.7266 86.4477 14.8216 86.2412 14.9907 86.089C15.1599 85.9367 15.3893 85.8512 15.6286 85.8512H19.9548C20.1937 85.8516 20.4226 85.9374 20.5914 86.0896C20.7601 86.2418 20.8549 86.448 20.8549 86.6631C20.8549 86.8781 20.7601 87.0843 20.5914 87.2365C20.4226 87.3887 20.1937 87.4745 19.9548 87.4749V87.4749Z" fill="white"/>
<path d="M19.9548 90.3222H15.6286C15.3893 90.3222 15.1599 90.2367 14.9907 90.0844C14.8216 89.9322 14.7266 89.7257 14.7266 89.5103C14.7266 89.295 14.8216 89.0885 14.9907 88.9363C15.1599 88.784 15.3893 88.6985 15.6286 88.6985H19.9548C20.1937 88.6989 20.4226 88.7847 20.5914 88.9369C20.7601 89.0891 20.8549 89.2953 20.8549 89.5103C20.8549 89.7254 20.7601 89.9316 20.5914 90.0838C20.4226 90.236 20.1937 90.3218 19.9548 90.3222V90.3222Z" fill="white"/>
<path d="M19.9548 93.1694H15.6286C15.3893 93.1694 15.1599 93.0838 14.9907 92.9316C14.8216 92.7793 14.7266 92.5728 14.7266 92.3575C14.7266 92.1422 14.8216 91.9357 14.9907 91.7834C15.1599 91.6312 15.3893 91.5457 15.6286 91.5457H19.9548C20.1937 91.5461 20.4226 91.6318 20.5914 91.784C20.7601 91.9362 20.8549 92.1425 20.8549 92.3575C20.8549 92.5725 20.7601 92.7788 20.5914 92.931C20.4226 93.0832 20.1937 93.1689 19.9548 93.1694V93.1694Z" fill="white"/>
<path d="M252.412 149.349H239.836C239.567 149.35 239.302 149.295 239.06 149.191C238.818 149.086 238.605 148.933 238.438 148.743C238.273 148.559 238.157 148.343 238.098 148.112C238.039 147.881 238.038 147.641 238.097 147.41C239.295 142.653 239.22 137.708 237.878 132.983C237.793 132.672 237.813 132.345 237.937 132.044C238.06 131.744 238.28 131.483 238.569 131.297C245.036 127.111 250.129 127.232 253.706 131.658C253.867 131.86 253.975 132.093 254.019 132.338C254.975 137.51 255.028 142.785 254.176 147.971C254.117 148.354 253.905 148.705 253.581 148.958C253.257 149.211 252.842 149.35 252.412 149.349V149.349Z" fill="#E6E6E6"/>
<path d="M248.513 138.014H244.187C243.948 138.013 243.719 137.928 243.551 137.775C243.382 137.623 243.287 137.417 243.287 137.202C243.287 136.987 243.382 136.781 243.551 136.629C243.719 136.476 243.948 136.391 244.187 136.39H248.513C248.753 136.39 248.982 136.476 249.151 136.628C249.32 136.78 249.415 136.987 249.415 137.202C249.415 137.417 249.32 137.624 249.151 137.776C248.982 137.928 248.753 138.014 248.513 138.014Z" fill="white"/>
<path d="M248.513 140.861H244.187C243.948 140.861 243.719 140.775 243.551 140.623C243.382 140.471 243.287 140.264 243.287 140.049C243.287 139.834 243.382 139.628 243.551 139.476C243.719 139.324 243.948 139.238 244.187 139.237H248.513C248.753 139.237 248.982 139.323 249.151 139.475C249.32 139.627 249.415 139.834 249.415 140.049C249.415 140.265 249.32 140.471 249.151 140.623C248.982 140.776 248.753 140.861 248.513 140.861Z" fill="white"/>
<path d="M248.513 143.708H244.187C243.948 143.708 243.719 143.622 243.551 143.47C243.382 143.318 243.287 143.112 243.287 142.897C243.287 142.682 243.382 142.475 243.551 142.323C243.719 142.171 243.948 142.085 244.187 142.085H248.513C248.753 142.085 248.982 142.17 249.151 142.323C249.32 142.475 249.415 142.681 249.415 142.897C249.415 143.112 249.32 143.318 249.151 143.471C248.982 143.623 248.753 143.708 248.513 143.708Z" fill="white"/>
<path d="M300 218.576C300 218.632 299.988 218.687 299.965 218.739C299.941 218.79 299.906 218.837 299.863 218.876C299.819 218.916 299.767 218.947 299.71 218.968C299.653 218.989 299.591 219 299.529 219H0.470561C0.345761 219 0.226076 218.955 0.137829 218.876C0.0495821 218.797 0 218.689 0 218.576C0 218.464 0.0495821 218.356 0.137829 218.277C0.226076 218.198 0.345761 218.153 0.470561 218.153H299.529C299.591 218.153 299.653 218.164 299.71 218.185C299.767 218.206 299.819 218.237 299.863 218.277C299.906 218.316 299.941 218.363 299.965 218.414C299.988 218.466 300 218.521 300 218.576V218.576Z" fill="#CCCCCC"/>
<path d="M78.8895 192.645L78.1051 182.826C72.9671 180.514 67.2799 179.366 61.5371 179.482C69.6164 185.103 68.9692 196.337 74.5646 204.025C76.3301 206.411 78.6695 208.409 81.4095 209.87C84.1494 211.332 87.2197 212.22 90.3927 212.468L97.1166 215.95C97.8857 211.374 97.5436 206.703 96.1139 202.258C94.6841 197.812 92.2006 193.699 88.8346 190.201C86.9246 188.255 84.7501 186.534 82.3623 185.078C80.8925 188.876 78.8895 192.645 78.8895 192.645Z" fill="#F2F2F2"/>
<path d="M221.11 194.068L221.894 184.249C227.032 181.938 232.719 180.79 238.462 180.905C230.383 186.526 231.03 197.76 225.435 205.449C223.669 207.835 221.33 209.832 218.59 211.294C215.85 212.755 212.78 213.643 209.607 213.891L202.883 217.373C202.114 212.798 202.456 208.126 203.885 203.681C205.315 199.236 207.799 195.123 211.165 191.625C213.075 189.679 215.249 187.958 217.637 186.501C219.107 190.299 221.11 194.068 221.11 194.068Z" fill="#F2F2F2"/>
<path d="M146.441 83.2621C150.59 83.2621 153.954 80.2345 153.954 76.4998C153.954 72.7651 150.59 69.7375 146.441 69.7375C142.291 69.7375 138.928 72.7651 138.928 76.4998C138.928 80.2345 142.291 83.2621 146.441 83.2621Z" fill="#E36D64"/>
<path d="M150.297 73.6816C150.184 73.5845 150.034 73.5304 149.878 73.5304C149.722 73.5304 149.572 73.5845 149.459 73.6816C147.864 74.8259 146.432 76.1423 145.195 77.6011C144.891 77.0721 144.588 76.5431 144.284 76.0141C143.933 75.4034 142.909 75.9428 143.259 76.553C143.704 77.3267 144.148 78.1005 144.592 78.8743C144.646 78.9533 144.721 79.0186 144.811 79.0639C144.901 79.1092 145.002 79.1329 145.105 79.1329C145.207 79.1329 145.308 79.1092 145.398 79.0639C145.488 79.0186 145.563 78.9533 145.617 78.8743C146.935 77.2028 148.511 75.7086 150.297 74.4366C150.408 74.336 150.47 74.2004 150.47 74.0591C150.47 73.9177 150.408 73.7821 150.297 73.6816V73.6816Z" fill="white"/>
<path d="M112.824 95.6752L101.494 79.6608L114.614 73.3369L118.057 85.5551L142.319 97.3552C143.277 97.045 144.314 96.9923 145.305 97.2035C146.295 97.4148 147.196 97.8809 147.897 98.545C148.599 99.2091 149.07 100.043 149.254 100.944C149.439 101.845 149.327 102.775 148.935 103.62C148.542 104.465 147.884 105.189 147.042 105.704C146.2 106.219 145.209 106.502 144.191 106.519C143.174 106.535 142.172 106.285 141.31 105.799C140.447 105.312 139.76 104.611 139.333 103.779L112.824 95.6752Z" fill="#A0616A"/>
<path d="M93.2175 60.4532C89.6576 65.1574 102.308 82.2571 102.308 82.2571C102.925 81.0614 108.816 94.4883 109.803 93.6951C112.607 91.4409 116.997 85.1617 119.437 84.8818C120.833 84.7217 116.201 75.8138 116.201 75.8138C116.201 75.8138 114.084 70.5537 111.211 63.8344C110.438 61.9212 109.14 60.2151 107.437 58.875C105.735 57.5348 103.683 56.6042 101.473 56.1697C101.473 56.1697 96.7773 55.7489 93.2175 60.4532Z" fill="#3F3D56"/>
<path d="M93.3899 213.72L98.7705 213.72L101.33 195.04L93.3887 195.04L93.3899 213.72Z" fill="#A0616A"/>
<path d="M92.0176 212.139L93.5321 212.139L99.4449 209.974L102.614 212.138H102.615C104.405 212.138 106.123 212.779 107.389 213.919C108.656 215.058 109.367 216.604 109.367 218.216V218.414L92.0179 218.414L92.0176 212.139Z" fill="#2F2E41"/>
<path d="M118.388 213.72L123.768 213.72L126.328 195.04L118.387 195.04L118.388 213.72Z" fill="#A0616A"/>
<path d="M117.016 212.139L118.53 212.139L124.443 209.974L127.612 212.138H127.613C129.403 212.138 131.121 212.779 132.387 213.919C133.654 215.058 134.365 216.604 134.365 218.216V218.414L117.016 218.414L117.016 212.139Z" fill="#2F2E41"/>
<path d="M120.716 111.596L85.7179 112.383C79.071 115.633 78.97 122.666 81.1479 131.016C81.1479 131.016 80.4127 135.979 81.8832 137.303C83.3536 138.626 84.0888 138.626 83.3536 140.942C82.6184 143.258 86.5029 147.041 86.0311 147.466C85.5593 147.89 84.4565 150.207 84.4565 150.207L88.1326 169.066C88.1326 169.066 90.7059 201.823 91.4411 202.484C92.1763 203.146 92.9115 202.484 92.1763 204.139C91.4411 205.793 90.7059 205.131 91.4411 205.793C92.0924 206.425 92.7059 207.088 93.2792 207.778H102.167C102.167 207.778 102.837 204.47 102.837 204.139C102.837 203.808 103.572 201.823 103.572 201.492C103.572 201.161 102.922 200.576 102.922 200.576C102.698 199.903 102.546 199.213 102.469 198.514C102.469 197.852 100.264 172.375 100.264 172.375L104.675 139.288L115.336 171.713C115.336 171.713 115.336 200.168 116.071 200.83C116.806 201.492 116.806 201.161 116.439 202.484C116.071 203.808 114.601 203.477 115.704 204.47C116.806 205.462 117.174 203.808 116.806 205.462L116.439 207.117L127.467 207.259C127.467 207.259 128.938 204.47 128.202 203.477C127.467 202.484 127.511 202.755 128.408 201.131C129.305 199.507 129.673 199.176 129.305 198.845C128.938 198.514 128.938 196.754 128.938 196.754L127.1 165.096C127.1 165.096 126.732 131.678 126.732 130.685C126.704 130.174 126.809 129.665 127.037 129.197V127.849L125.629 123.075L120.716 111.596Z" fill="#2F2E41"/>
<path d="M99.6925 46.0955C105.698 46.0955 110.567 41.7136 110.567 36.3081C110.567 30.9027 105.698 26.5208 99.6925 26.5208C93.6869 26.5208 88.8184 30.9027 88.8184 36.3081C88.8184 41.7136 93.6869 46.0955 99.6925 46.0955Z" fill="#A0616A"/>
<path d="M105.13 52.5642C107.472 53.8178 108.874 56.121 109.678 58.4647C111.167 62.8038 112.064 67.2901 112.348 71.8244L113.197 85.3993L123.721 114.304C114.601 121.25 80.3188 115.883 80.3188 115.883C80.3188 115.883 79.2665 115.567 80.3188 114.62C81.3712 113.673 82.3956 114.512 81.3433 113.565C80.291 112.617 81.0164 113.673 81.3672 112.725C81.718 111.778 81.3672 112.41 81.0164 112.094C80.6657 111.778 83.732 108.937 83.732 108.937L80.9257 92.3451L77.418 58.8786C81.6273 54.1428 90.0929 51.3511 90.0929 51.3511L92.2803 47.8073L103.217 48.5948L105.13 52.5642Z" fill="#3F3D56"/>
<path d="M108.656 31.1083C109.502 31.6756 110.128 32.4673 110.447 33.3718C110.569 31.8936 110.577 30.4096 110.47 28.9305C110.342 27.8911 109.529 27.6573 108.587 27.3864C107.737 27.1417 106.776 26.8652 106.517 25.8562C103.099 22.8632 97.1485 23.0142 93.0762 24.0581C90.8354 24.6326 89.546 25.3707 89.4306 25.8031L89.4067 25.8921L89.3157 25.9331C87.5885 26.7104 87.2522 29.1651 87.2744 31.0873C87.3165 34.709 88.7059 38.8223 89.4885 39.1564C89.53 39.1741 89.5404 39.1672 89.5584 39.1537C90.7369 38.306 92.1747 39.2182 92.8066 39.714C93.1793 37.4631 94.3793 35.3895 96.2149 33.8244C98.0505 32.2593 100.416 31.293 102.933 31.0798C103.755 31.0083 104.571 30.8852 105.374 30.7115C105.781 30.6166 106.2 30.5671 106.621 30.5642C107.345 30.5543 108.056 30.7442 108.656 31.1083V31.1083Z" fill="#2F2E41"/>
<path d="M176.162 119.395L197.079 100.276L202.591 84.9848L193.722 81.7561C189.329 85.7448 184.806 97.9553 184.806 97.9553L170.529 115.202C170.415 115.24 170.301 115.28 170.189 115.328C169.532 115.607 168.966 116.035 168.545 116.569C168.125 117.102 167.865 117.725 167.79 118.376C167.715 119.026 167.828 119.683 168.118 120.284C168.407 120.884 168.864 121.406 169.444 121.801C170.024 122.196 170.707 122.449 171.427 122.537C172.147 122.624 172.881 122.543 173.556 122.301C174.231 122.06 174.826 121.665 175.283 121.156C175.739 120.646 176.042 120.04 176.162 119.395Z" fill="#FFB8B8"/>
<path d="M191.303 83.5054L202.518 86.4256L202.56 86.4183C206.683 85.6979 209.944 79.5314 211.954 74.4852C212.615 72.8208 212.549 70.9926 211.77 69.3701C210.991 67.7476 209.556 66.4519 207.756 65.745V65.745C206.424 65.2315 204.96 65.0636 203.528 65.2602C202.095 65.4567 200.753 66.0099 199.652 66.8573L194.06 71.1912L191.303 83.5054Z" fill="#E36D64"/>
<path d="M181.708 213.152L175.676 213.152L172.807 192.212L181.709 192.212L181.708 213.152Z" fill="#FFB8B8"/>
<path d="M183.246 211.379L181.548 211.379L174.92 208.953L171.367 211.379H171.367C169.359 211.379 167.434 212.097 166.014 213.375C164.595 214.652 163.797 216.385 163.797 218.192V218.414L183.246 218.414L183.246 211.379Z" fill="#2F2E41"/>
<path d="M208.471 213.152L202.44 213.152L199.57 192.212L208.473 192.212L208.471 213.152Z" fill="#FFB8B8"/>
<path d="M210.01 211.379L208.312 211.379L201.684 208.953L198.131 211.379H198.131C196.123 211.379 194.198 212.097 192.778 213.375C191.358 214.652 190.561 216.385 190.561 218.192V218.414L210.009 218.414L210.01 211.379Z" fill="#2F2E41"/>
<path d="M217.668 122.956C217.668 122.956 218.373 130.563 216.612 137.853C214.851 145.143 214.851 165.674 214.851 165.674L210.977 205.682L199.356 204.732L196.187 137.853L184.918 160.357L185.974 163.527L184.567 164.319C184.567 164.319 185.622 170.5 184.918 170.5C184.213 170.5 182.453 171.451 182.453 171.451L183.861 204.098L171.888 203.781L167.662 157.821L172.24 131.514L172.592 126.442L174.177 126.501L174.984 124.382L176.466 120.737L217.668 122.956Z" fill="#2F2E41"/>
<path d="M218.278 124.553L218.341 124.474C221.693 120.25 216.651 110.1 215.891 108.629L219.094 107.694L218.372 102.176L218.031 99.7162L220.478 97.5131L220.485 97.4582L221.894 86.3646L223.942 78.9963C224.714 76.2108 224.648 73.2907 223.752 70.5356C222.855 67.7806 221.16 65.2899 218.841 63.3193L214.107 59.3017L208.353 51.6394H199.075L195.894 57.0479C192.809 57.6895 190.073 59.2846 188.161 61.5554C186.249 63.8262 185.283 66.6288 185.431 69.4749L186.151 83.6597L183.329 101.321L183.327 104.517L180.151 107.695L180.844 110.816L178.427 111.749L177.359 116.232C176.918 116.756 174.002 120.256 174.002 121.212C174.002 121.356 174.12 121.495 174.373 121.649C176.36 122.86 187.342 125.329 192.203 123.578C197.381 121.715 217.964 124.51 218.171 124.539L218.278 124.553Z" fill="#E36D64"/>
<path d="M202.514 49.166C209.301 49.166 214.802 44.2144 214.802 38.1063C214.802 31.9982 209.301 27.0466 202.514 27.0466C195.728 27.0466 190.227 31.9982 190.227 38.1063C190.227 44.2144 195.728 49.166 202.514 49.166Z" fill="#FFB8B8"/>
<path d="M201.337 49.3451C203.24 49.3276 205.138 49.1638 207.01 48.8555C208.863 48.4712 212.952 45.6254 214.067 43.9442C214.895 42.6951 215.392 40.763 215.663 39.3622C216.029 37.5083 215.958 35.6059 215.456 33.7782C214.953 31.9505 214.029 30.2381 212.745 28.7521C212.25 28.1295 211.577 27.639 210.797 27.3324C210.728 27.3099 210.657 27.2903 210.586 27.2737C209.456 27.034 208.431 26.4958 207.644 25.7282C207.491 25.5728 207.326 25.4275 207.149 25.2935C206.266 24.6567 205.227 24.2173 204.119 24.0109C202.328 23.6239 199.767 24.1089 196.506 25.4538C194.867 26.1295 193.049 25.941 191.647 25.7013C191.569 25.6895 191.488 25.6965 191.414 25.7214C191.339 25.7464 191.273 25.7886 191.222 25.8437C190.643 26.3585 189.869 26.6572 189.056 26.6796C188.559 26.7108 188.054 27.3438 187.445 28.1681C187.307 28.3552 187.146 28.5736 187.029 28.7069L187.006 28.4566L186.732 28.7427C186.302 29.1925 186.005 29.7329 185.869 30.3138C185.733 30.8946 185.763 31.4969 185.955 32.0646C186.148 32.6323 186.497 33.147 186.97 33.5606C187.443 33.9743 188.024 34.2735 188.66 34.4304C189.165 34.5388 189.68 34.6005 190.199 34.6146C190.513 34.6327 190.838 34.6514 191.15 34.6927C192.153 34.8534 193.093 35.2455 193.877 35.8306C194.662 36.4157 195.264 37.1739 195.626 38.0312C195.711 38.2293 195.846 38.4071 196.02 38.5509C196.194 38.6946 196.402 38.8005 196.629 38.8603C196.855 38.9201 197.094 38.9323 197.327 38.8959C197.559 38.8595 197.779 38.7754 197.97 38.6502C198.288 38.4158 198.663 38.2538 199.065 38.1783C199.467 38.1027 199.883 38.1157 200.278 38.2163C200.622 38.3779 200.893 38.641 201.047 38.9613C201.233 39.3179 201.532 39.6165 201.908 39.8192C203.187 40.3757 203.348 42.9692 202.957 45.1433C202.58 47.239 201.759 48.7678 200.961 48.8609C200.347 48.9326 200.278 48.9736 200.236 49.0727L200.199 49.1614L200.27 49.2418C200.613 49.3449 200.977 49.3801 201.337 49.3451V49.3451Z" fill="#2F2E41"/>
<path d="M191.144 84.6882L185.237 77.9146C179.221 79.4057 168.546 87.9699 168.546 87.9699L146.623 96.5329C145.891 96.4222 145.14 96.487 144.445 96.7207C143.75 96.9544 143.135 97.3488 142.663 97.8641C142.192 98.3795 141.879 98.9977 141.757 99.6564C141.635 100.315 141.708 100.991 141.968 101.616C142.229 102.242 142.667 102.794 143.241 103.218C143.814 103.643 144.501 103.923 145.233 104.032C145.965 104.141 146.716 104.075 147.41 103.84C148.105 103.605 148.718 103.209 149.189 102.693L177.908 95.4812L191.144 84.6882Z" fill="#FFB8B8"/>
<path d="M189.729 86.2367L199.048 76.8861L199.566 70.2605C199.662 68.9594 199.352 67.6601 198.671 66.5092C197.99 65.3584 196.965 64.4019 195.711 63.7479V63.7479C194.006 62.8717 191.994 62.6112 190.083 63.0189C188.172 63.4266 186.505 64.4722 185.417 65.9443C182.124 70.4112 178.582 76.4506 180.405 79.8557L180.423 79.8902L189.729 86.2367Z" fill="#E36D64"/>
<path d="M103.831 121.383L79.6093 110.217C77.8864 109.423 77.3157 107.317 78.3371 105.522L94.1302 77.7664C95.1517 75.9714 97.3843 75.1571 99.1072 75.9513L123.329 87.1166C125.052 87.9108 125.623 90.0173 124.601 91.8124L108.808 119.567C107.787 121.363 105.554 122.177 103.831 121.383Z" fill="#E6E6E6"/>
<path d="M99.6933 116.25L83.2367 108.664C81.6231 107.92 81.0885 105.947 82.0452 104.266L95.1658 81.2077C96.1224 79.5265 98.2135 78.764 99.8271 79.5078L119.703 88.67C121.317 89.4138 121.851 91.3865 120.895 93.0677L113.767 105.594C109.506 113.083 106.881 119.563 99.6933 116.25Z" fill="white"/>
<path d="M107.83 103.658L93.2537 96.9386C93.0755 96.8243 92.9489 96.6561 92.8971 96.4648C92.8452 96.2734 92.8716 96.0716 92.9713 95.8963C93.0711 95.721 93.2376 95.5838 93.4404 95.5099C93.6432 95.4359 93.8688 95.4301 94.076 95.4935L108.652 102.212C108.83 102.327 108.957 102.495 109.009 102.686C109.061 102.878 109.034 103.079 108.934 103.255C108.835 103.43 108.668 103.567 108.465 103.641C108.263 103.715 108.037 103.721 107.83 103.658V103.658Z" fill="#E36D64"/>
<path d="M94.9551 101.327L91.6287 99.7939C91.4505 99.6796 91.3239 99.5114 91.272 99.32C91.2202 99.1287 91.2466 98.9269 91.3463 98.7516C91.4461 98.5763 91.6126 98.4391 91.8154 98.3651C92.0182 98.2911 92.2439 98.2853 92.4511 98.3487L95.7775 99.882C95.9557 99.9963 96.0823 100.165 96.1341 100.356C96.186 100.547 96.1596 100.749 96.0598 100.924C95.9601 101.1 95.7936 101.237 95.5908 101.311C95.3879 101.385 95.1623 101.391 94.9551 101.327V101.327Z" fill="#E36D64"/>
<path d="M99.2216 106.898L90.0037 102.649C89.8255 102.535 89.6989 102.367 89.647 102.175C89.5952 101.984 89.6216 101.782 89.7213 101.607C89.8211 101.431 89.9876 101.294 90.1904 101.22C90.3932 101.146 90.6188 101.141 90.8261 101.204L100.044 105.453C100.222 105.567 100.349 105.735 100.401 105.927C100.452 106.118 100.426 106.32 100.326 106.495C100.227 106.671 100.06 106.808 99.8572 106.882C99.6544 106.956 99.4288 106.962 99.2216 106.898V106.898Z" fill="#E36D64"/>
<path d="M113.597 93.5206L99.0213 86.8016C98.8431 86.6873 98.7165 86.5192 98.6646 86.3278C98.6128 86.1364 98.6391 85.9347 98.7389 85.7594C98.8387 85.584 99.0051 85.4469 99.208 85.3729C99.4108 85.299 99.6364 85.2931 99.8436 85.3565L114.42 92.0755C114.598 92.1898 114.725 92.358 114.776 92.5493C114.828 92.7407 114.802 92.9425 114.702 93.1178C114.602 93.2931 114.436 93.4303 114.233 93.5042C114.03 93.5782 113.805 93.584 113.597 93.5206V93.5206Z" fill="#E36D64"/>
<path d="M100.723 91.1903L97.3963 89.6569C97.2181 89.5426 97.0915 89.3744 97.0396 89.183C96.9878 88.9917 97.0142 88.7899 97.1139 88.6146C97.2137 88.4393 97.3802 88.3021 97.583 88.2282C97.7858 88.1542 98.0114 88.1483 98.2186 88.2117L101.545 89.7451C101.723 89.8594 101.85 90.0276 101.902 90.2189C101.954 90.4103 101.927 90.612 101.827 90.7874C101.728 90.9627 101.561 91.0998 101.358 91.1738C101.156 91.2478 100.93 91.2536 100.723 91.1903V91.1903Z" fill="#E36D64"/>
<path d="M104.989 96.7613L95.7713 92.5121C95.5931 92.3978 95.4665 92.2296 95.4146 92.0383C95.3628 91.8469 95.3891 91.6451 95.4889 91.4698C95.5887 91.2945 95.7552 91.1573 95.958 91.0834C96.1608 91.0094 96.3864 91.0036 96.5936 91.0669L105.812 95.316C105.99 95.4303 106.116 95.5985 106.168 95.7899C106.22 95.9813 106.194 96.183 106.094 96.3583C105.994 96.5337 105.828 96.6708 105.625 96.7448C105.422 96.8188 105.196 96.8246 104.989 96.7612L104.989 96.7613Z" fill="#E36D64"/>
<path d="M83.7591 97.2192L78.2871 78.8838L92.9098 76.3923L92.1235 88.9776L111.336 106.784C112.354 106.746 113.361 106.976 114.235 107.445C115.11 107.914 115.814 108.602 116.262 109.424C116.71 110.247 116.882 111.17 116.757 112.079C116.633 112.988 116.217 113.845 115.56 114.546C114.904 115.246 114.035 115.759 113.06 116.023C112.085 116.287 111.046 116.289 110.07 116.031C109.093 115.772 108.221 115.263 107.56 114.566C106.9 113.869 106.478 113.014 106.348 112.106L83.7591 97.2192Z" fill="#A0616A"/>
<path d="M76.7906 58.3259C71.8272 61.8527 78.1978 81.5801 78.1978 81.5801C79.1841 80.6058 80.3303 95.0048 81.5359 94.5145C84.9623 93.1211 91.2426 88.316 93.6637 88.7076C95.0483 88.9316 93.5977 79.1834 93.5977 79.1834C93.5977 79.1834 93.3309 73.594 92.8294 66.4085C92.7295 64.3748 92.0595 62.3968 90.8818 60.6587C89.7041 58.9207 88.057 57.4791 86.0938 56.4681C86.0938 56.4681 81.7541 54.7991 76.7906 58.3259Z" fill="#3F3D56"/>
<path d="M159.38 137.916L146.162 132.298C145.879 132.179 145.63 132.003 145.434 131.785C145.237 131.567 145.098 131.311 145.027 131.037C144.955 130.769 144.952 130.491 145.017 130.222C145.082 129.953 145.215 129.7 145.404 129.484C149.232 125.079 151.861 119.929 153.08 114.445C153.172 114.025 153.423 113.647 153.79 113.375C154.157 113.103 154.618 112.954 155.094 112.954C161.835 112.975 166.873 115.19 170.068 119.538C170.236 119.764 170.348 120.021 170.395 120.29C170.442 120.559 170.423 120.833 170.34 121.095C168.49 126.834 165.675 132.284 161.993 137.256C161.72 137.632 161.304 137.906 160.824 138.027C160.343 138.149 159.83 138.109 159.38 137.916Z" fill="#E6E6E6"/>
<path d="M163.268 130.037L153.161 125.742C152.91 125.635 152.716 125.442 152.622 125.207C152.528 124.971 152.542 124.712 152.661 124.485C152.78 124.259 152.993 124.085 153.255 124C153.517 123.916 153.805 123.928 154.057 124.035L164.163 128.33C164.288 128.383 164.399 128.458 164.492 128.55C164.584 128.641 164.656 128.749 164.702 128.865C164.749 128.982 164.769 129.106 164.763 129.229C164.756 129.353 164.722 129.475 164.663 129.587C164.605 129.699 164.522 129.799 164.42 129.883C164.318 129.966 164.199 130.03 164.069 130.072C163.94 130.114 163.802 130.132 163.665 130.126C163.527 130.12 163.392 130.09 163.268 130.037H163.268Z" fill="white"/>
<path d="M164.838 127.044L154.732 122.749C154.48 122.642 154.286 122.45 154.192 122.214C154.099 121.979 154.113 121.719 154.231 121.493C154.35 121.267 154.564 121.092 154.825 121.008C155.087 120.923 155.375 120.936 155.627 121.043L165.733 125.338C165.985 125.445 166.179 125.637 166.273 125.873C166.366 126.108 166.352 126.368 166.234 126.594C166.115 126.82 165.901 126.995 165.64 127.079C165.378 127.164 165.089 127.151 164.838 127.044V127.044Z" fill="white"/>
<path d="M151.334 33.1049L150.393 33.1976C146.198 18.3618 138.068 8.0837 126.88 3.47427C112.657 -2.38512 95.0706 1.54957 77.359 14.5537C59.5574 27.6242 43.7983 48.27 32.9851 72.6888L32.0723 72.3129C42.933 47.7874 58.773 27.0418 76.6743 13.8987C94.6654 0.689026 112.611 -3.27452 127.206 2.7383C138.715 7.47981 147.058 17.9804 151.334 33.1049Z" fill="#F2F2F2"/>
<path d="M47.5431 52.4267C45.0829 57.0914 42.7428 61.9241 40.5878 66.7904C28.187 94.7941 21.9027 123.393 22.4163 149.498L21.4471 149.405C20.933 123.203 27.2353 94.5054 39.675 66.4144C41.8362 61.5344 44.1829 56.6881 46.6502 52.0101L47.5431 52.4267Z" fill="#F2F2F2"/>
<path d="M47.0782 71.6684C44.618 76.3331 42.278 81.1658 40.123 86.0321C27.7221 114.036 21.4379 142.635 21.9514 168.739L20.9822 168.646C20.4682 142.445 26.7705 113.747 39.2102 85.6561C41.3713 80.7761 43.718 75.9298 46.1853 71.2518L47.0782 71.6684Z" fill="#F2F2F2"/>
<path d="M21.0295 78.6663C22.1009 77.2169 21.4668 75.1421 19.6131 74.0321C17.7595 72.9221 15.3883 73.1973 14.3169 74.6467C13.2455 76.0961 13.8796 78.1709 15.7333 79.2809C17.5869 80.3909 19.9581 80.1157 21.0295 78.6663Z" fill="#CCCCCC"/>
<path d="M249.168 131.009C250.24 129.56 249.605 127.485 247.752 126.375C245.898 125.265 243.527 125.54 242.456 126.99C241.384 128.439 242.018 130.514 243.872 131.624C245.726 132.734 248.097 132.459 249.168 131.009Z" fill="#CCCCCC"/>
</g>
<defs>
<clipPath id="clip0_218_379">
<rect width="300" height="219" fill="white"/>
</clipPath>
</defs>
</svg>
